<svg version="1.1" id="Layer_1" xmlns="http://www.w3.org/2000/svg" x="0" y="0" width="846" height="304.223" viewBox="170.775 233.445 846 304.223" xml:space="preserve"><path fill="#404041" d="M360.714 311.573h16.709c9.267 0 18.057 3.484 18.057 14.094 0 6.099-3.644 10.852-9.9 12.277v.158c7.838.633 12.671 5.859 12.671 14.018 0 3.643-2.376 15.521-20.433 15.521h-17.104v-56.068zm5.701 24.55h11.481c5.468 0 11.405-2.613 11.405-9.819 0-2.299-1.188-9.506-11.96-9.506h-10.927l.001 19.325zm0 26.294h10.927c8.237 0 14.73-3.248 14.73-10.614 0-7.365-4.912-10.928-14.016-10.928h-11.642l.001 21.542zm43.245 5.225h-6.653l24.396-56.068h5.543l24.39 56.068h-6.651l-6.175-14.729h-28.672l-6.178 14.729zm8.317-19.956h24.311l-12.115-29.46-12.196 29.46zm59.558 19.956h-5.702v-50.844h-18.767v-5.225h43.237v5.225h-18.77l.002 50.844zm45.466 0h-5.704v-50.844h-18.77v-5.225h43.242v5.225H523l.001 50.844zm33.187-5.225h30.016v5.225h-35.718v-56.068h34.769v5.225h-29.064v19.088h27.162v5.228h-27.162v21.304h-.003zm46.966 5.225h-5.701v-56.068h17.268c11.402 0 18.451 4.91 18.451 14.968 0 7.76-5.148 13.698-14.336 14.494l16.158 26.606h-6.973l-15.361-26.054h-9.506v26.054zm0-31.283h10.137c10.217 0 13.703-4.436 13.703-9.819s-3.486-9.743-13.703-9.743h-10.137v19.562zm58.219 31.283h-5.705v-24.153l-20.984-31.916h7.127l16.709 26.45 16.715-26.45h7.123l-20.984 31.916v24.153h-.001zm77.33-41.497c-2.455-2.931-6.018-4.594-10.611-4.594-9.348 0-16.234 7.604-16.234 18.058 0 10.452 6.889 18.057 15.838 18.057 4.99 0 9.029-2.217 11.563-6.021l10.293 7.683c-4.67 6.653-12.59 9.743-20.273 9.743-17.502 0-30.252-11.484-30.252-29.462 0-17.979 12.75-29.461 30.252-29.461 6.256 0 14.178 2.139 18.93 8.237l-9.506 7.76zm18.064-14.572h38.094v11.404h-25.74v10.451h24.314v11.404h-24.314v11.405h27.164v11.403h-39.518v-56.067zm49.899 0h12.354v44.665h22.887v11.403h-35.238v-56.068h-.003zm42.533 0h12.354v44.665h22.887v11.403H849.2v-56.068zm69.773 13.699c-1.979-2.535-5.939-3.723-8.947-3.723-3.482 0-8.314 1.584-8.314 5.78 0 10.219 25.818 3.644 25.818 23.284 0 12.513-10.061 18.454-21.621 18.454-7.209 0-13.545-2.141-18.852-7.051l8.793-9.661c2.533 3.324 6.65 5.307 10.77 5.307 4.037 0 8.555-1.901 8.555-5.861 0-10.296-26.293-4.752-26.293-23.44 0-11.959 10.373-18.216 21.381-18.216 6.336 0 12.436 1.662 17.188 5.86l-8.478 9.267z"/><path fill="#910D30" d="M397.779 440.703l12.516 13.229h-15.286l-4.671-5.309c-4.594 4.754-9.818 6.734-16.473 6.734-10.137 0-19.877-5.543-19.877-16.791 0-7.203 5.226-13.064 11.877-15.285-3.646-3.958-6.176-7.045-6.176-12.589 0-10.138 8.551-14.258 17.502-14.258 8.63 0 16.313 4.357 16.313 13.781 0 6.651-4.752 11.64-10.372 14.572l7.206 7.684 5.465-7.443h13.776l-11.8 15.675zm-24.55-10.692c-3.089 1.904-6.415 3.805-6.415 8.004 0 4.113 3.644 6.889 7.524 6.889 3.645 0 6.181-1.82 8.793-4.115l-9.902-10.778zm-1.663-18.848c0 2.772 2.772 5.309 4.673 7.051 2.457-1.426 6.338-4.039 6.338-7.208 0-3.244-2.536-5.066-5.544-5.066-3.089-.002-5.467 2.057-5.467 5.223z"/><path d="M466.122 411.56c-1.979-2.532-5.938-3.723-8.945-3.723-3.485 0-8.315 1.586-8.315 5.783 0 10.215 25.816 3.641 25.816 23.284 0 12.514-10.061 18.453-21.621 18.453-7.209 0-13.542-2.141-18.849-7.049l8.79-9.662c2.534 3.324 6.653 5.307 10.769 5.307 4.041 0 8.558-1.9 8.558-5.861 0-10.295-26.295-4.752-26.295-23.442 0-11.958 10.374-18.215 21.383-18.215 6.338 0 12.434 1.663 17.186 5.862l-8.477 9.263zm31.526 18.451l-21.066-32.15h15.363l11.881 20.986 12.593-20.986h14.649l-21.066 32.15v23.92h-12.354v-23.92zm65.263-18.451c-1.979-2.532-5.941-3.723-8.948-3.723-3.482 0-8.313 1.586-8.313 5.783 0 10.215 25.817 3.641 25.817 23.284 0 12.514-10.062 18.453-21.622 18.453-7.209 0-13.544-2.141-18.851-7.049l8.793-9.662c2.533 3.324 6.65 5.307 10.769 5.307 4.038 0 8.557-1.9 8.557-5.861 0-10.295-26.294-4.752-26.294-23.442 0-11.958 10.37-18.215 21.382-18.215 6.336 0 12.435 1.663 17.184 5.862l-8.474 9.263zm28.593-2.771H575.51V397.86h44.349v10.929h-15.998v45.142h-12.356l-.001-45.142zm35.089-10.929h38.094v11.404h-25.738v10.453h24.313v11.403h-24.313v11.404h27.166v11.404h-39.521V397.86h-.001zm49.424 0h18.689l12.91 36.586h.158l12.986-36.586h18.611v56.071h-12.355v-43.003h-.156l-14.73 43.003h-9.426l-14.176-43.003h-.158v43.003h-12.355V397.86h.002zm102.486 13.7c-1.979-2.532-5.939-3.723-8.947-3.723-3.482 0-8.313 1.586-8.313 5.783 0 10.215 25.816 3.641 25.816 23.284 0 12.514-10.061 18.453-21.621 18.453-7.209 0-13.543-2.141-18.852-7.049l8.793-9.662c2.533 3.324 6.65 5.307 10.77 5.307 4.039 0 8.557-1.9 8.557-5.861 0-10.295-26.295-4.752-26.295-23.442 0-11.958 10.371-18.215 21.383-18.215 6.334 0 12.434 1.663 17.182 5.862l-8.473 9.263zm40.952 37.147h30.016v5.225h-35.717V397.86h34.766v5.228h-29.063v19.085h27.162v5.227h-27.162v21.307h-.002zm58.687-28.434l15.682-22.413h7.127l-19.006 26.61 20.59 29.461h-7.521l-17.105-25.426-17.186 25.426h-7.129l20.512-29.461-18.926-26.61h7.68l15.282 22.413zm32.477-22.413h16.313c11.406 0 18.457 4.911 18.457 14.965 0 10.061-7.051 15.049-18.457 15.049h-10.607v26.057h-5.703V397.86h-.003zm5.705 24.79h9.184c10.217 0 13.703-4.437 13.703-9.825 0-5.383-3.486-9.737-13.703-9.737h-9.184v19.562zm65.179 32.707c-16.709 0-29.223-12.436-29.223-29.461 0-17.028 12.514-29.462 29.223-29.462s29.223 12.435 29.223 29.462c0 17.025-12.514 29.461-29.223 29.461zm0-53.693c-14.416 0-23.045 11.322-23.045 24.232 0 12.906 8.629 24.23 23.045 24.23 14.414 0 23.047-11.324 23.047-24.23 0-12.91-8.633-24.232-23.047-24.232z" fill="#404041"/><path fill="#BE1E2D" d="M282.07 409.058h-24.777l-46.41 121.877z"/><path fill="#910D30" d="M331.92 369.295c-2.406-4.696-6.758-5.513-11.539-5.447-18.715.244-37.436.445-56.151.627-1.628.017-3.259-.225-5.524-.39l47.439-125.058c-8.519 9.373-16.337 19.076-24.083 28.833-13.774 17.353-27.503 34.74-41.294 52.082l-56.945 68.44s-6.814 6.128-2.543 14.748c-.032.005-.067.015-.101.022 2.442 4.476 5.842 5.934 10.216 5.923 19.941-.044 39.88-.018 59.824-.018h6.074l-45.034 118.258a2258.85 2258.85 0 00-2.114 3.617 5.09 5.09 0 00.866-.342l-.128.342.232-.4c.748-.408 1.28-.957 1.754-1.547 25.646-31.953 51.306-63.898 76.914-95.877 13.453-16.8 26.834-33.655 40.216-50.508 3.202-4.026 4.391-8.489 1.921-13.305z"/><linearGradient id="SVGID_1_" gradientUnits="userSpaceOnUse" x1="34.609" y1="570.936" x2="146.562" y2="669.675" gradientTransform="matrix(1 0 0 -1 174.375 964.345)"><stop offset="0" stop-color="#ec297b"/><stop offset="1" stop-color="#eb008b" stop-opacity="0"/></linearGradient><path fill="url(#SVGID_1_)" d="M320.382 363.848h-90.666l76.43-124.821-122.322 149.355s-6.933 6.658-2.543 14.748l139.101-39.282z"/><linearGradient id="SVGID_2_" gradientUnits="userSpaceOnUse" x1="49.646" y1="457.666" x2="106.415" y2="579.034" gradientTransform="matrix(1 0 0 -1 174.375 964.345)"><stop offset="0" stop-color="#ec297b"/><stop offset="1" stop-color="#eb008b" stop-opacity="0"/></linearGradient><path fill="url(#SVGID_2_)" d="M282.07 409.058h-24.777l-46.41 121.877z"/></svg>