<?xml version="1.0" encoding="UTF-8"?>
<svg id="Artwork" xmlns="http://www.w3.org/2000/svg" version="1.1" viewBox="0 0 924.47 229.27">
  <!-- Generator: Adobe Illustrator 29.5.1, SVG Export Plug-In . SVG Version: 2.1.0 Build 141)  -->
  <defs>
    <style>
      .st0 {
        fill: #00539a;
      }
    </style>
  </defs>
  <g>
    <path d="M74.02,222.15v-23.08h3.3v20.21h12.5v2.87h-15.8Z"/>
    <path d="M103.59,222.42c-1.76,0-3.39-.3-4.9-.89-1.51-.59-2.81-1.42-3.91-2.49-1.1-1.07-1.96-2.31-2.57-3.74-.62-1.43-.92-2.99-.92-4.68s.31-3.25.92-4.68c.62-1.43,1.47-2.68,2.57-3.74,1.1-1.07,2.4-1.9,3.89-2.49s3.13-.89,4.91-.89,3.38.29,4.86.87,2.78,1.41,3.89,2.47c1.11,1.07,1.97,2.31,2.57,3.74s.91,3,.91,4.71-.3,3.29-.91,4.71c-.6,1.43-1.46,2.68-2.57,3.74-1.11,1.07-2.41,1.89-3.89,2.47s-3.1.87-4.86.87v.02ZM103.59,219.48c1.27,0,2.46-.22,3.54-.66,1.09-.44,2.03-1.06,2.83-1.86s1.43-1.74,1.88-2.82c.45-1.08.68-2.25.68-3.53s-.23-2.45-.68-3.53-1.08-2.02-1.88-2.82c-.8-.8-1.75-1.42-2.83-1.86-1.09-.44-2.27-.66-3.54-.66s-2.49.22-3.58.66-2.04,1.06-2.85,1.86c-.81.8-1.45,1.74-1.9,2.82-.45,1.08-.68,2.25-.68,3.53s.22,2.45.68,3.53c.45,1.08,1.08,2.02,1.9,2.82.81.8,1.76,1.42,2.85,1.86,1.09.44,2.28.66,3.58.66Z"/>
    <polygon points="140.71 199.07 140.71 222.15 138.01 222.15 124.16 204.95 124.16 222.15 120.86 222.15 120.86 199.07 123.57 199.07 137.41 216.27 137.41 199.07 140.71 199.07"/>
    <path d="M163.62,210.48h3.17v9c-1.15.97-2.48,1.7-4.01,2.19-1.53.5-3.1.75-4.73.75-1.78,0-3.42-.29-4.91-.88-1.5-.58-2.79-1.4-3.89-2.47s-1.96-2.31-2.57-3.74c-.62-1.43-.93-3-.93-4.72s.31-3.28.93-4.71c.61-1.43,1.47-2.68,2.58-3.74,1.11-1.07,2.42-1.89,3.91-2.48,1.5-.58,3.14-.87,4.95-.87s3.49.3,5.01.89c1.52.59,2.8,1.48,3.86,2.67l-2.05,2.05c-.94-.93-1.97-1.6-3.08-2.03s-2.31-.65-3.61-.65-2.54.22-3.68.66c-1.13.44-2.11,1.06-2.93,1.85-.83.79-1.46,1.73-1.91,2.82s-.68,2.27-.68,3.54.23,2.43.68,3.51c.45,1.09,1.08,2.04,1.91,2.84.82.8,1.8,1.42,2.92,1.86s2.34.66,3.66.66c1.23,0,2.41-.19,3.54-.57.65-.22,1.27-.53,1.86-.92v-7.51h0Z"/>
    <path d="M200.91,212.61c-.59-.89-1.39-1.57-2.4-2.03-.34-.15-.69-.28-1.06-.38,0,0,.02-.01.03-.01.95-.47,1.7-1.13,2.26-1.98.56-.86.84-1.92.84-3.17,0-1.85-.71-3.3-2.14-4.37-1.43-1.06-3.47-1.6-6.13-1.6h-10.36v23.08h11.02c2.92,0,5.12-.54,6.61-1.63,1.48-1.09,2.22-2.62,2.22-4.6,0-1.32-.29-2.42-.89-3.31h0ZM185.25,201.74h6.76c1.67,0,2.97.31,3.89.93.92.61,1.39,1.54,1.39,2.77s-.47,2.15-1.39,2.77c-.92.61-2.22.92-3.89.92h-6.76v-7.39h0ZM197.02,218.56c-.97.61-2.36.92-4.19.92h-7.58v-7.68h7.58c1.83,0,3.22.31,4.19.92.97.62,1.45,1.6,1.45,2.94s-.48,2.28-1.45,2.9h0Z"/>
    <polygon points="223.66 219.28 223.66 222.15 206.91 222.15 206.91 199.07 223.2 199.07 223.2 201.94 210.21 201.94 210.21 209.03 221.78 209.03 221.78 211.83 210.21 211.83 210.21 219.28 223.66 219.28"/>
    <path d="M239.22,199.07h-3.26l-10.45,23.08h3.39l2.54-5.77h12.26l2.54,5.77h3.47l-10.49-23.08h0ZM232.59,213.75l4.98-11.33,4.98,11.33h-9.96Z"/>
    <path d="M263.13,222.42c-1.76,0-3.38-.29-4.86-.87-1.48-.58-2.77-1.41-3.86-2.47-1.09-1.07-1.94-2.31-2.55-3.74-.62-1.43-.92-3-.92-4.71s.31-3.29.92-4.71c.62-1.43,1.47-2.68,2.57-3.74,1.1-1.07,2.39-1.89,3.87-2.47,1.48-.58,3.1-.87,4.86-.87s3.42.3,4.93.91,2.79,1.5,3.84,2.69l-2.14,2.08c-.88-.92-1.87-1.61-2.97-2.06s-2.27-.68-3.53-.68-2.5.22-3.61.66-2.07,1.06-2.88,1.85-1.45,1.73-1.9,2.82c-.45,1.09-.68,2.27-.68,3.54s.22,2.46.68,3.54c.45,1.09,1.08,2.03,1.9,2.82.81.79,1.77,1.41,2.88,1.85,1.11.44,2.31.66,3.61.66s2.43-.22,3.53-.68c1.1-.45,2.09-1.15,2.97-2.09l2.14,2.08c-1.05,1.19-2.33,2.09-3.84,2.7s-3.16.92-4.96.92v-.03Z"/>
    <polygon points="296.49 199.07 296.49 222.15 293.19 222.15 293.19 211.87 279.94 211.87 279.94 222.15 276.64 222.15 276.64 199.07 279.94 199.07 279.94 209 293.19 209 293.19 199.07 296.49 199.07"/>
    <path d="M305.89,220.08c0,.22-.02.43-.05.64-.03.21-.09.45-.17.72-.07.28-.19.61-.34,1.01l-1.55,4.58h-2.08l1.21-4.9c-.27-.09-.51-.24-.73-.44-.43-.39-.64-.93-.64-1.61s.21-1.2.64-1.62c.43-.42.95-.63,1.56-.63.64,0,1.16.22,1.55.65.4.43.6.96.6,1.6h0Z"/>
    <path d="M330.09,222.42c-1.76,0-3.38-.29-4.86-.87-1.48-.58-2.77-1.41-3.86-2.47-1.09-1.07-1.94-2.31-2.55-3.74-.62-1.43-.92-3-.92-4.71s.31-3.29.92-4.71c.62-1.43,1.47-2.68,2.57-3.74,1.1-1.07,2.39-1.89,3.87-2.47,1.48-.58,3.1-.87,4.86-.87s3.42.3,4.93.91,2.79,1.5,3.84,2.69l-2.14,2.08c-.88-.92-1.87-1.61-2.97-2.06s-2.27-.68-3.53-.68-2.5.22-3.61.66-2.07,1.06-2.88,1.85-1.45,1.73-1.9,2.82c-.45,1.09-.68,2.27-.68,3.54s.22,2.46.68,3.54c.45,1.09,1.08,2.03,1.9,2.82.81.79,1.77,1.41,2.88,1.85,1.11.44,2.31.66,3.61.66s2.43-.22,3.53-.68c1.1-.45,2.09-1.15,2.97-2.09l2.14,2.08c-1.05,1.19-2.33,2.09-3.84,2.7s-3.16.92-4.96.92v-.03Z"/>
    <path d="M353.26,199.07h-3.26l-10.45,23.08h3.39l2.54-5.77h12.27l2.54,5.77h3.46l-10.49-23.08ZM346.63,213.75l4.99-11.34,4.98,11.34h-9.97Z"/>
    <path d="M367.18,222.15v-23.08h3.3v20.21h12.5v2.87h-15.8Z"/>
    <path d="M386.76,222.15v-23.08h3.3v23.08h-3.3Z"/>
    <polygon points="400.28 201.94 400.28 209.99 411.85 209.99 411.85 212.82 400.28 212.82 400.28 222.15 396.98 222.15 396.98 199.07 413.27 199.07 413.27 201.94 400.28 201.94"/>
    <path d="M428.07,222.42c-1.76,0-3.39-.3-4.9-.89-1.51-.59-2.81-1.42-3.91-2.49-1.1-1.07-1.96-2.31-2.57-3.74-.62-1.43-.92-2.99-.92-4.68s.31-3.25.92-4.68c.62-1.43,1.47-2.68,2.57-3.74,1.1-1.07,2.4-1.9,3.89-2.49s3.13-.89,4.91-.89,3.38.29,4.86.87,2.78,1.41,3.89,2.47c1.11,1.07,1.97,2.31,2.57,3.74s.91,3,.91,4.71-.3,3.29-.91,4.71c-.6,1.43-1.46,2.68-2.57,3.74-1.11,1.07-2.41,1.89-3.89,2.47-1.48.58-3.1.87-4.86.87v.02ZM428.07,219.48c1.27,0,2.46-.22,3.54-.66,1.09-.44,2.03-1.06,2.83-1.86s1.43-1.74,1.88-2.82c.45-1.08.68-2.25.68-3.53s-.23-2.45-.68-3.53-1.08-2.02-1.88-2.82c-.8-.8-1.75-1.42-2.83-1.86-1.09-.44-2.27-.66-3.54-.66s-2.49.22-3.58.66-2.04,1.06-2.85,1.86-1.45,1.74-1.9,2.82c-.45,1.08-.68,2.25-.68,3.53s.22,2.45.68,3.53c.45,1.08,1.08,2.02,1.9,2.82.81.8,1.76,1.42,2.85,1.86,1.09.44,2.28.66,3.58.66Z"/>
    <path d="M458.89,214.42c.22-.07.43-.16.63-.25,1.43-.63,2.53-1.55,3.3-2.75.77-1.2,1.15-2.63,1.15-4.3s-.38-3.11-1.15-4.32-1.87-2.13-3.3-2.77c-1.42-.64-3.15-.96-5.17-.96h-9v23.08h3.29v-7.02h5.71c.51,0,.99-.02,1.46-.06l4.97,7.08h3.59l-5.48-7.73h0ZM454.25,212.33h-5.61v-10.39h5.61c2.11,0,3.71.45,4.8,1.35,1.08.91,1.63,2.18,1.63,3.83s-.55,2.93-1.63,3.84c-1.09.91-2.69,1.37-4.8,1.37h0Z"/>
    <polygon points="489.16 199.07 489.16 222.15 486.46 222.15 472.61 204.95 472.61 222.15 469.32 222.15 469.32 199.07 472.02 199.07 485.87 216.28 485.87 199.07 489.16 199.07"/>
    <path d="M496.09,222.15v-23.08h3.3v23.08h-3.3Z"/>
    <path d="M516.53,199.07h-3.27l-10.45,23.08h3.4l2.54-5.77h12.26l2.54,5.77h3.46l-10.48-23.08ZM509.9,213.75l4.98-11.33,4.98,11.33h-9.96,0Z"/>
    <path d="M548.18,228.55v-30.86h2.93v30.86h-2.93Z"/>
    <path d="M578.75,222.42c-1.36,0-2.64-.29-3.82-.86-1.19-.57-2.15-1.4-2.9-2.47l1.91-2.24c.64.88,1.36,1.56,2.16,2.03s1.69.71,2.65.71c2.64,0,3.96-1.56,3.96-4.68v-12.96h-8.34v-2.87h11.61v15.66c0,2.57-.61,4.5-1.83,5.77-1.22,1.28-3.02,1.91-5.39,1.91h0Z"/>
    <path d="M602.25,222.42c-3.03,0-5.42-.87-7.16-2.6s-2.6-4.27-2.6-7.62v-13.12h3.3v12.99c0,2.57.57,4.45,1.7,5.64s2.73,1.78,4.8,1.78,3.7-.59,4.83-1.78,1.7-3.07,1.7-5.64v-12.99h3.2v13.12c0,3.34-.86,5.88-2.59,7.62-1.73,1.74-4.12,2.6-7.17,2.6h-.01Z"/>
    <polygon points="638.61 199.07 638.61 222.15 635.91 222.15 622.06 204.95 622.06 222.15 618.77 222.15 618.77 199.07 621.47 199.07 635.32 216.28 635.32 199.07 638.61 199.07"/>
    <polygon points="662.29 219.28 662.29 222.15 645.54 222.15 645.54 199.07 661.82 199.07 661.82 201.94 648.83 201.94 648.83 209.03 660.41 209.03 660.41 211.83 648.83 211.83 648.83 219.28 662.29 219.28"/>
    <path d="M690.84,219.28v2.87h-16.59v-2.24l9.4-9.07c.83-.79,1.46-1.49,1.86-2.09.41-.6.68-1.16.83-1.68.14-.52.21-1.02.21-1.5,0-1.19-.42-2.12-1.25-2.8-.84-.68-2.06-1.03-3.66-1.03-1.23,0-2.34.21-3.33.61-.99.41-1.85,1.04-2.57,1.9l-2.24-1.94c.87-1.13,2.06-1.99,3.54-2.59,1.48-.61,3.11-.91,4.89-.91,1.61,0,3.01.26,4.19.78,1.19.51,2.11,1.25,2.76,2.22.64.97.97,2.11.97,3.43,0,.75-.1,1.48-.3,2.21-.2.72-.57,1.49-1.12,2.31-.55.81-1.34,1.72-2.37,2.73l-7.04,6.79h11.82,0Z"/>
    <polygon points="700.7 199.07 700.7 222.15 697.43 222.15 697.43 201.94 692.22 201.94 692.22 199.07 700.7 199.07"/>
    <path d="M706.37,211.87v-2.74h8.87v2.74h-8.87Z"/>
    <path d="M734.26,219.28v2.87h-16.59v-2.24l9.4-9.07c.84-.79,1.46-1.49,1.86-2.09.41-.6.68-1.16.83-1.68.14-.52.21-1.02.21-1.5,0-1.19-.42-2.12-1.25-2.8-.84-.68-2.06-1.03-3.66-1.03-1.23,0-2.34.21-3.33.61-.99.41-1.85,1.04-2.57,1.9l-2.24-1.94c.88-1.13,2.06-1.99,3.54-2.59,1.48-.61,3.12-.91,4.9-.91,1.6,0,3,.26,4.18.78,1.19.51,2.11,1.25,2.76,2.22.64.97.97,2.11.97,3.43,0,.75-.1,1.48-.3,2.21-.2.72-.57,1.49-1.12,2.31-.55.81-1.34,1.72-2.37,2.73l-7.04,6.79h11.82,0Z"/>
    <polygon points="756.41 213.65 756.41 216.48 752.03 216.48 752.03 222.15 748.83 222.15 748.83 216.48 736.01 216.48 736.01 214.17 747.81 199.07 751.37 199.07 740.06 213.65 748.93 213.65 748.93 208.64 752.03 208.64 752.03 213.65 756.41 213.65"/>
    <path d="M763.4,220.08c0,.22,0,.43-.05.64-.03.21-.09.45-.16.72-.08.28-.19.61-.35,1.01l-1.55,4.58h-2.07l1.21-4.9c-.27-.09-.52-.24-.74-.44-.43-.39-.64-.93-.64-1.61s.21-1.2.64-1.62c.43-.42.95-.63,1.57-.63s1.15.22,1.55.65c.39.43.59.96.59,1.6h0Z"/>
    <path d="M791.62,219.28v2.87h-16.58v-2.24l9.4-9.07c.83-.79,1.45-1.49,1.86-2.09s.68-1.16.82-1.68c.15-.52.22-1.02.22-1.5,0-1.19-.42-2.12-1.25-2.8-.84-.68-2.06-1.03-3.66-1.03-1.24,0-2.34.21-3.33.61-.99.41-1.85,1.04-2.58,1.9l-2.24-1.94c.88-1.13,2.06-1.99,3.55-2.59,1.48-.61,3.11-.91,4.89-.91,1.61,0,3,.26,4.19.78,1.19.51,2.1,1.25,2.75,2.22s.98,2.11.98,3.43c0,.75-.1,1.48-.3,2.21-.2.72-.57,1.49-1.12,2.31-.55.81-1.34,1.72-2.38,2.73l-7.03,6.79h11.81Z"/>
    <path d="M803.73,222.42c-1.8,0-3.41-.46-4.83-1.38s-2.54-2.26-3.36-4.02c-.82-1.76-1.24-3.89-1.24-6.4s.41-4.64,1.24-6.4c.82-1.76,1.94-3.1,3.36-4.02s3.03-1.38,4.83-1.38,3.38.46,4.81,1.38,2.55,2.26,3.36,4.02c.81,1.76,1.22,3.89,1.22,6.4s-.41,4.64-1.22,6.4c-.81,1.76-1.93,3.1-3.36,4.02s-3.03,1.38-4.81,1.38ZM803.73,219.48c1.21,0,2.27-.33,3.18-.99s1.63-1.65,2.14-2.97c.52-1.32.77-2.96.77-4.91s-.26-3.59-.77-4.91c-.52-1.32-1.23-2.31-2.14-2.97s-1.97-.99-3.18-.99-2.27.33-3.2.99c-.92.66-1.64,1.65-2.16,2.97-.52,1.32-.77,2.96-.77,4.91s.26,3.59.77,4.91,1.24,2.31,2.16,2.97,1.99.99,3.2.99Z"/>
    <path d="M832.51,219.28v2.87h-16.59v-2.24l9.4-9.07c.83-.79,1.45-1.49,1.86-2.09s.68-1.16.83-1.68c.14-.52.21-1.02.21-1.5,0-1.19-.42-2.12-1.25-2.8-.84-.68-2.06-1.03-3.66-1.03-1.23,0-2.34.21-3.33.61-.99.41-1.85,1.04-2.57,1.9l-2.25-1.94c.88-1.13,2.06-1.99,3.55-2.59,1.48-.61,3.11-.91,4.89-.91,1.61,0,3,.26,4.19.78,1.19.51,2.11,1.25,2.75,2.22.65.97.98,2.11.98,3.43,0,.75-.1,1.48-.3,2.21-.2.72-.57,1.49-1.12,2.31-.55.81-1.34,1.72-2.37,2.73l-7.04,6.79h11.82,0Z"/>
    <path d="M852.02,211.42c-.68-1.04-1.61-1.85-2.8-2.42s-2.55-.86-4.09-.86c-1.16,0-2.24.17-3.24.51s-1.86.86-2.58,1.55c-.31.3-.59.64-.82,1.01-.01-.32-.02-.6-.02-.86,0-2.88.7-5.05,2.08-6.51,1.39-1.46,3.25-2.19,5.61-2.19.83,0,1.63.07,2.39.23.75.15,1.43.44,2.02.85l1.26-2.57c-.73-.46-1.59-.8-2.59-1.02s-2.05-.33-3.15-.33c-2.13,0-4.02.46-5.67,1.38-1.65.93-2.94,2.29-3.86,4.09-.92,1.81-1.38,4.01-1.38,6.63,0,2.46.38,4.54,1.13,6.25.76,1.7,1.87,3,3.32,3.9,1.45.91,3.2,1.36,5.24,1.36,1.54,0,2.92-.3,4.15-.89,1.23-.6,2.21-1.44,2.94-2.54.72-1.1,1.09-2.39,1.09-3.86s-.34-2.66-1.03-3.71h0ZM849.19,217.62c-.44.67-1.04,1.19-1.8,1.57-.76.37-1.64.56-2.65.56-1.19,0-2.19-.21-3-.63-.82-.42-1.43-.96-1.85-1.63s-.63-1.4-.63-2.19c0-.86.23-1.63.68-2.3.45-.67,1.07-1.2,1.86-1.6.8-.39,1.72-.59,2.77-.59,1.63,0,2.91.4,3.86,1.2.95.81,1.42,1.89,1.42,3.25,0,.9-.22,1.69-.66,2.36Z"/>
  </g>
  <g>
    <path class="st0" d="M370.29,56.01c.73-4.02,4.22-6.94,8.31-6.94h126.9c2.88,0,5.35-2.03,5.91-4.85l3.73-18.77c.74-3.73-2.11-7.2-5.91-7.2h-187.47c-1.98,0-3.83.97-4.96,2.6l-50.71,73.39c-2.23,3.44-7.22,3.44-8.25,0l-16.78-50.94-7.29-22.12c-.52-1.55-2.06-2.58-3.78-2.58H25.76c-2.58,0-4.99,2.06-5.5,4.64L.83,134.3c-.52,2.58,1.2,4.64,3.78,4.64l208.75-.16-9.88-29.93H46.73c-2.58,0-4.3-2.06-3.95-4.64l1.37-7.39c.34-2.58,2.92-4.64,5.5-4.64h148.32l-8.86-26.82H54.28c-2.58,0-4.3-2.06-3.78-4.64l1.2-7.22c.52-2.58,2.92-4.81,5.5-4.81h144.5l1.89,5.74,27.06,81.94c.52,1.55,1.89,2.58,3.78,2.58h39.37c1.72,0,3.61-1.03,4.64-2.58l54.74-80.06c-2.14,12.87-1.74,21.12,2.77,26.41,8.06,9.45,29.24,9.46,72.51,9.46h49.7c2.58,0,4.3,2.06,3.95,4.64l-.89,5.02c-.53,3-3.14,5.18-6.18,5.18h-135.93l-21.24,30.83h174.32c10.89,0,20.21-7.8,22.13-18.52l5.83-32.58c1.98-11.06-6.49-21.23-17.73-21.28-14.17-.06-36.29-.11-69.14-.11h-40.06c-2.58,0-4.3-2.06-3.78-4.64,0,0,.39-2.2.84-4.69v-.02Z"/>
    <g>
      <path class="st0" d="M811.54,47.42c-39.04,0-43.06,0-44.66,9.32-1.61,9.32,1.28,9.32,41.29,9.32s43.06,0,44.66-9.32c1.77-9.32-2.25-9.32-41.29-9.32Z"/>
      <path class="st0" d="M917.68,1.27h-366.42c-2.93,0-5.44,2.09-5.97,4.97l-26.22,142.49c-.69,3.73,2.18,7.17,5.97,7.17h366.42c2.93,0,5.44-2.09,5.97-4.97l26.22-142.49c.69-3.73-2.18-7.17-5.97-7.17h0ZM715.81,50.47c-2.09,11.89-4.5,19.12-10.93,23.62-2.57,1.77-3.05,4.98-1.12,6.75,5.3,4.98,5.62,13.82,3.53,25.87-5.62,31.17-26.35,31.17-83.06,31.17s-77.44,0-71.98-31.17c.16-.64.32-1.29.32-1.93.48-2.41,2.73-4.34,5.14-4.34h26.19c2.09,0,3.53,1.44,3.69,3.37.48,5.94,8.03,5.94,41.61,5.94,39.04,0,42.9,0,44.66-9.32,1.61-9.32-1.29-9.32-41.45-9.32h-12.05c-2.41,0-4.18-1.93-3.69-4.34l2.89-16.39c.48-2.41,2.73-4.34,5.14-4.34h12.21c38.56,0,41.61,0,43.22-9.32,1.61-9.48-1.93-9.32-40-9.32-32.61,0-39.84,0-42.25,5.94-.8,1.93-2.73,3.37-4.82,3.37h-26.19c-2.41,0-4.02-1.93-3.69-4.34.16-.64.32-1.28.32-1.93,5.62-31.17,25.54-31.17,81.62-31.17s76.15,0,70.69,31.17v.03ZM883.51,78.58c-10.6,59.28-14.78,59.28-87.88,59.28-59.61,0-75.67,0-71.01-32.94.32-2.41,2.73-4.5,5.14-4.5h22.64c3.49,0,6.34,2.27,7.91,5.39,1.98,3.93,10.33,3.93,40.14,3.93,38.08,0,41.93,0,44.66-10.28.64-1.93,1.12-4.34,1.61-6.75.64-2.89-1.45-4.98-4.18-4.5-14.3,2.25-34.06,2.89-70.85,2.89-31.49,0-44.66-4.18-38.72-37.75,5.94-33.58,26.83-34.06,83.54-34.06,74.07,0,77.44,0,67,59.28h0Z"/>
    </g>
  </g>
</svg>