<?xml version="1.0" encoding="UTF-8" standalone="no"?>
<!-- Created with Inkscape (http://www.inkscape.org/) -->

<svg
   width="48.353573mm"
   height="99.137993mm"
   viewBox="0 0 48.353573 99.137993"
   version="1.1"
   id="svg1"
   xml:space="preserve"
   inkscape:version="1.3.2 (091e20e, 2023-11-25, custom)"
   sodipodi:docname="Man Confused.svg"
   xmlns:inkscape="http://www.inkscape.org/namespaces/inkscape"
   xmlns:sodipodi="http://sodipodi.sourceforge.net/DTD/sodipodi-0.dtd"
   xmlns="http://www.w3.org/2000/svg"
   xmlns:svg="http://www.w3.org/2000/svg"><sodipodi:namedview
     id="namedview1"
     pagecolor="#ffffff"
     bordercolor="#111111"
     borderopacity="1"
     inkscape:showpageshadow="0"
     inkscape:pageopacity="0"
     inkscape:pagecheckerboard="1"
     inkscape:deskcolor="#d1d1d1"
     inkscape:document-units="mm"
     inkscape:zoom="1.304312"
     inkscape:cx="525.94778"
     inkscape:cy="719.53643"
     inkscape:window-width="1920"
     inkscape:window-height="1111"
     inkscape:window-x="-9"
     inkscape:window-y="-9"
     inkscape:window-maximized="1"
     inkscape:current-layer="layer1" /><defs
     id="defs1"><clipPath
       clipPathUnits="userSpaceOnUse"
       id="clipPath5"><rect
         style="opacity:0.587045;fill:#e9afaf;fill-opacity:1;stroke:none;stroke-width:5.85605;stroke-linejoin:round;stroke-dasharray:none;stroke-opacity:1"
         id="rect5"
         width="29.657063"
         height="96.103271"
         x="142.24477"
         y="104.464" /></clipPath><clipPath
       clipPathUnits="userSpaceOnUse"
       id="clipPath6"><rect
         style="opacity:1;fill:#ffffff;fill-opacity:1;stroke:none;stroke-width:6.29999;stroke-linejoin:round;stroke-dasharray:none;stroke-opacity:1"
         id="rect7"
         width="11.055073"
         height="11.222573"
         x="246.14285"
         y="98.993149" /></clipPath><clipPath
       clipPathUnits="userSpaceOnUse"
       id="clipPath16"><path
         style="fill:#1f497d;fill-opacity:1"
         d="m 169.8147,197.7841 c 0.48108,-0.32742 1.12377,-0.93144 1.42819,-1.34226 0.55338,-0.74681 0.55351,-0.75334 0.62283,-32.23699 l 0.0693,-31.49003 2.71107,-2.68802 c 2.90405,-2.87935 4.1745,-4.76472 5.46904,-8.11613 1.39056,-3.59996 1.68892,-5.82881 1.51992,-11.35414 -0.26531,-8.67456 -1.43309,-11.660455 -4.56036,-11.660455 -0.7454,0 -1.17081,0.20517 -1.86522,0.89958 -0.77577,0.775775 -0.89958,1.076205 -0.89954,2.182825 2e-5,0.70577 0.18869,2.23573 0.41925,3.39989 0.5114,2.58224 0.59651,9.96896 0.13718,11.90625 -0.48589,2.04929 -2.27744,5.4358 -3.7493,7.08719 -2.4638,2.76432 -1.76788,2.58743 -11.03409,2.80461 -7.15909,0.16778 -8.24101,0.24886 -9.05642,0.67869 -4.14545,2.1852 -6.72603,7.1874 -7.9916,15.49097 -0.22432,1.47176 -0.34278,5.05384 -0.34278,10.36534 0,7.82559 0.0199,8.14314 0.55444,8.86354 1.18459,1.59637 4.00413,1.67683 5.08904,0.14524 0.46915,-0.66231 0.52245,-1.37781 0.65492,-8.79078 0.1163,-6.50894 0.24626,-8.60714 0.67186,-10.84792 1.25619,-6.6138 1.24981,-6.66571 1.44709,11.77396 0.0996,9.31333 0.18649,21.57677 0.193,27.25208 0.014,12.17104 0.14998,13.87464 1.19468,14.96508 0.97018,1.01265 2.21313,1.39101 4.11719,1.25328 1.66203,-0.12022 2.55362,-0.601 3.52394,-1.90024 0.53671,-0.71865 0.54675,-1.02271 0.62204,-18.83522 l 0.0765,-18.10477 h 0.76975 0.76975 l 0.0798,17.92552 0.0798,17.92552 0.62197,1.00041 c 0.84177,1.35394 2.26519,2.0423 4.22315,2.0423 1.18109,0 1.7709,-0.14428 2.43361,-0.59532 z m -4.58944,-73.33563 c 1.70411,-0.79344 3.29034,-2.35736 4.23785,-4.17825 0.63574,-1.22174 0.72766,-1.69847 0.72875,-3.77935 0.002,-2.88448 -0.53336,-4.26847 -2.35278,-6.08789 -1.84492,-1.84492 -3.48798,-2.5059 -6.22916,-2.5059 -1.81984,0 -2.50967,0.12139 -3.61534,0.6362 -2.66414,1.24043 -4.68007,4.05215 -5.03125,7.01734 -0.33207,2.80377 1.21146,6.24204 3.58624,7.98847 2.28282,1.6788 6.15209,2.08438 8.67569,0.90938 z m 20.51903,-12.52166 c 1.19403,-1.36886 1.36168,-3.4215 0.39643,-4.85383 -1.15072,-1.70756 -2.05518,-1.14301 -0.98387,0.6141 0.66077,1.08377 0.6645,1.69907 0.019,3.14079 -0.66618,1.48797 -0.33292,2.13226 0.56842,1.09894 z m -1.26291,-1.18335 c 0.57393,-0.81941 0.51364,-2.12164 -0.13649,-2.94816 -0.98389,-1.2508 -1.78389,-0.70667 -0.87301,0.59379 0.35804,0.51118 0.38036,0.78293 0.13229,1.61092 -0.38007,1.26856 -0.37613,1.33149 0.0835,1.33149 0.21003,0 0.56722,-0.26462 0.79375,-0.58804 z M 172.72242,100.592 c 0,-0.724295 0.18853,-1.115355 0.79375,-1.646425 0.86439,-0.758489 1.03415,-1.372416 0.37948,-1.372416 -1.51399,0 -2.90735,2.657961 -1.91406,3.651251 0.53512,0.53512 0.74083,0.35951 0.74083,-0.63241 z m -1.85208,0.0374 c 0,-1.451225 0.63346,-2.695749 1.6328,-3.207898 1.33421,-0.68376 1.70795,-1.435864 0.71353,-1.435864 -0.75599,0 -2.18895,0.911021 -2.72872,1.734822 -0.52113,0.795334 -0.48283,3.58012 0.0517,3.75643 0.22372,0.0738 0.33073,-0.20042 0.33073,-0.84749 z"
         id="path16"
         clip-path="url(#clipPath5)"
         transform="translate(-71.134258,21.568073)" /></clipPath></defs><g
     inkscape:label="Layer 1"
     inkscape:groupmode="layer"
     id="layer1"
     transform="translate(235.70403,-210.53622)"><rect
       style="fill:#1f497d;fill-opacity:1;stroke:none;stroke-width:8.82953;stroke-linejoin:round;stroke-dasharray:none;stroke-opacity:1"
       id="rect8"
       width="39.884197"
       height="113.964"
       x="79.336052"
       y="120.80952"
       clip-path="url(#clipPath16)"
       transform="translate(-303.7865,89.726716)" /><path
       style="fill:#1f497d;fill-opacity:1"
       d="m 233.51564,193.74152 c 0.48108,-0.32742 1.12377,-0.93144 1.42819,-1.34226 0.55338,-0.74681 0.55351,-0.75334 0.62283,-32.23699 l 0.0693,-31.49003 2.71107,-2.68802 c 2.90405,-2.87935 4.1745,-4.76472 5.46904,-8.11613 1.39056,-3.59996 1.68892,-5.82881 1.51992,-11.35414 -0.26531,-8.674555 -1.43309,-11.660445 -4.56036,-11.660445 -0.7454,0 -1.17081,0.20517 -1.86522,0.89958 -0.77577,0.77577 -0.89958,1.0762 -0.89954,2.18282 2e-5,0.70577 0.18869,2.235725 0.41925,3.399885 0.5114,2.58224 0.59651,9.96896 0.13718,11.90625 -0.48589,2.04929 -2.27744,5.4358 -3.7493,7.08719 -2.4638,2.76432 -1.76788,2.58743 -11.03409,2.80461 -7.15909,0.16778 -8.24101,0.24886 -9.05642,0.67869 -4.14545,2.1852 -6.72603,7.1874 -7.9916,15.49097 -0.22432,1.47176 -0.34278,5.05384 -0.34278,10.36534 0,7.82559 0.0199,8.14314 0.55444,8.86354 1.18459,1.59637 4.00413,1.67683 5.08904,0.14524 0.46915,-0.66231 0.52245,-1.37781 0.65492,-8.79078 0.11631,-6.50894 0.24626,-8.60714 0.67186,-10.84792 1.25619,-6.6138 1.24981,-6.66571 1.44709,11.77396 0.0996,9.31333 0.18649,21.57677 0.193,27.25208 0.014,12.17104 0.14998,13.87464 1.19468,14.96508 0.97019,1.01265 2.21313,1.39101 4.11719,1.25328 1.66203,-0.12022 2.55362,-0.601 3.52394,-1.90024 0.53671,-0.71865 0.54675,-1.02271 0.62204,-18.83522 l 0.0765,-18.10477 h 0.76975 0.76975 l 0.0798,17.92552 0.0798,17.92552 0.62197,1.00041 c 0.84177,1.35394 2.26519,2.0423 4.22315,2.0423 1.18109,0 1.7709,-0.14428 2.43361,-0.59532 z m -4.58944,-73.33563 c 1.70411,-0.79344 3.29034,-2.35736 4.23785,-4.17825 0.63574,-1.22174 0.72766,-1.69847 0.72875,-3.77935 0.002,-2.88448 -0.53336,-4.26847 -2.35278,-6.08789 -1.84492,-1.84492 -3.48798,-2.5059 -6.22916,-2.5059 -1.81984,0 -2.50967,0.12139 -3.61534,0.6362 -2.66414,1.24043 -4.68007,4.05215 -5.03125,7.01734 -0.33207,2.80377 1.21146,6.24204 3.58624,7.98847 2.28283,1.6788 6.15209,2.08438 8.67569,0.90938 z m 20.51903,-12.52166 c 1.19403,-1.36886 1.36168,-3.4215 0.39643,-4.85383 -1.15072,-1.70756 -2.05518,-1.14301 -0.98387,0.6141 0.66077,1.08377 0.6645,1.69907 0.019,3.14079 -0.66618,1.48797 -0.33292,2.13226 0.56842,1.09894 z m -1.26291,-1.18335 c 0.57393,-0.81941 0.51364,-2.12164 -0.13649,-2.94816 -0.98389,-1.2508 -1.78389,-0.70667 -0.87301,0.59379 0.35804,0.51118 0.38036,0.78293 0.13229,1.61092 -0.38007,1.26856 -0.37613,1.33149 0.0835,1.33149 0.21003,0 0.56722,-0.26462 0.79375,-0.58804 z M 236.42336,96.549425 c 0,-0.72429 0.18853,-1.11535 0.79375,-1.64642 0.86439,-0.758489 1.03415,-1.372416 0.37948,-1.372416 -1.51399,0 -2.90735,2.657956 -1.91406,3.651246 0.53512,0.53512 0.74083,0.35951 0.74083,-0.63241 z m -1.85208,0.0374 c 0,-1.45122 0.63346,-2.695744 1.6328,-3.207893 1.33421,-0.68376 1.70795,-1.435864 0.71353,-1.435864 -0.75599,0 -2.18895,0.911021 -2.72872,1.734822 -0.52113,0.795334 -0.48283,3.580115 0.0517,3.756425 0.22372,0.0738 0.33073,-0.20042 0.33073,-0.84749 z"
       id="path9"
       clip-path="url(#clipPath6)"
       transform="translate(-437.81742,126.11864)" /><path
       style="fill:none;fill-opacity:1;stroke:#1f497d;stroke-width:6.3;stroke-linejoin:round;stroke-dasharray:none;stroke-opacity:1"
       d="m -207.41777,244.08535 13.02332,-12.53651 -18.36088,-10.02508"
       id="path11"
       sodipodi:nodetypes="ccc" /><ellipse
       style="fill:#ffffff;fill-opacity:1;stroke:none;stroke-width:12.6892;stroke-linejoin:round;stroke-dasharray:none;stroke-opacity:1"
       id="ellipse11"
       cx="-315.72662"
       cy="71.562408"
       rx="4.0404983"
       ry="1.5601768"
       transform="matrix(0.81069909,-0.58546305,0.70461237,0.70959243,0,0)" /><path
       style="fill:#1f497d;fill-opacity:1"
       d="m 233.51564,193.74152 c 0.48108,-0.32742 1.12377,-0.93144 1.42819,-1.34226 0.55338,-0.74681 0.55351,-0.75334 0.62283,-32.23699 l 0.0693,-31.49003 2.71107,-2.68802 c 2.90405,-2.87935 4.1745,-4.76472 5.46904,-8.11613 1.39056,-3.59996 1.68892,-5.82881 1.51992,-11.35414 -0.26531,-8.674555 -1.43309,-11.660445 -4.56036,-11.660445 -0.7454,0 -1.17081,0.20517 -1.86522,0.89958 -0.77577,0.77577 -0.89958,1.0762 -0.89954,2.18282 2e-5,0.70577 0.18869,2.235725 0.41925,3.399885 0.5114,2.58224 0.59651,9.96896 0.13718,11.90625 -0.48589,2.04929 -2.27744,5.4358 -3.7493,7.08719 -2.4638,2.76432 -1.76788,2.58743 -11.03409,2.80461 -7.15909,0.16778 -8.24101,0.24886 -9.05642,0.67869 -4.14545,2.1852 -6.72603,7.1874 -7.9916,15.49097 -0.22432,1.47176 -0.34278,5.05384 -0.34278,10.36534 0,7.82559 0.0199,8.14314 0.55444,8.86354 1.18459,1.59637 4.00413,1.67683 5.08904,0.14524 0.46915,-0.66231 0.52245,-1.37781 0.65492,-8.79078 0.11631,-6.50894 0.24626,-8.60714 0.67186,-10.84792 1.25619,-6.6138 1.24981,-6.66571 1.44709,11.77396 0.0996,9.31333 0.18649,21.57677 0.193,27.25208 0.014,12.17104 0.14998,13.87464 1.19468,14.96508 0.97019,1.01265 2.21313,1.39101 4.11719,1.25328 1.66203,-0.12022 2.55362,-0.601 3.52394,-1.90024 0.53671,-0.71865 0.54675,-1.02271 0.62204,-18.83522 l 0.0765,-18.10477 h 0.76975 0.76975 l 0.0798,17.92552 0.0798,17.92552 0.62197,1.00041 c 0.84177,1.35394 2.26519,2.0423 4.22315,2.0423 1.18109,0 1.7709,-0.14428 2.43361,-0.59532 z m -4.58944,-73.33563 c 1.70411,-0.79344 3.29034,-2.35736 4.23785,-4.17825 0.63574,-1.22174 0.72766,-1.69847 0.72875,-3.77935 0.002,-2.88448 -0.53336,-4.26847 -2.35278,-6.08789 -1.84492,-1.84492 -3.48798,-2.5059 -6.22916,-2.5059 -1.81984,0 -2.50967,0.12139 -3.61534,0.6362 -2.66414,1.24043 -4.68007,4.05215 -5.03125,7.01734 -0.33207,2.80377 1.21146,6.24204 3.58624,7.98847 2.28283,1.6788 6.15209,2.08438 8.67569,0.90938 z m 20.51903,-12.52166 c 1.19403,-1.36886 1.36168,-3.4215 0.39643,-4.85383 -1.15072,-1.70756 -2.05518,-1.14301 -0.98387,0.6141 0.66077,1.08377 0.6645,1.69907 0.019,3.14079 -0.66618,1.48797 -0.33292,2.13226 0.56842,1.09894 z m -1.26291,-1.18335 c 0.57393,-0.81941 0.51364,-2.12164 -0.13649,-2.94816 -0.98389,-1.2508 -1.78389,-0.70667 -0.87301,0.59379 0.35804,0.51118 0.38036,0.78293 0.13229,1.61092 -0.38007,1.26856 -0.37613,1.33149 0.0835,1.33149 0.21003,0 0.56722,-0.26462 0.79375,-0.58804 z M 236.42336,96.549425 c 0,-0.72429 0.18853,-1.11535 0.79375,-1.64642 0.86439,-0.758489 1.03415,-1.372416 0.37948,-1.372416 -1.51399,0 -2.90735,2.657956 -1.91406,3.651246 0.53512,0.53512 0.74083,0.35951 0.74083,-0.63241 z m -1.85208,0.0374 c 0,-1.45122 0.63346,-2.695744 1.6328,-3.207893 1.33421,-0.68376 1.70795,-1.435864 0.71353,-1.435864 -0.75599,0 -2.18895,0.911021 -2.72872,1.734822 -0.52113,0.795334 -0.48283,3.580115 0.0517,3.756425 0.22372,0.0738 0.33073,-0.20042 0.33073,-0.84749 z"
       id="path12"
       clip-path="url(#clipPath6)"
       transform="matrix(0.63872706,-1.0372356,1.0372356,0.63872706,-475.30566,407.04714)" /><circle
       style="fill:#1f497d;fill-opacity:1;stroke:none;stroke-width:6.29999;stroke-linejoin:round;stroke-dasharray:none;stroke-opacity:1"
       id="circle12"
       cx="-213.1147"
       cy="227.54054"
       r="8.8775578" /><path
       style="fill:none;fill-opacity:1;stroke:#1f497d;stroke-width:6.3;stroke-linejoin:round;stroke-dasharray:none;stroke-opacity:1"
       d="m -222.06154,241.55574 -10.4926,14.65781 12.78743,12.92539"
       id="path17"
       sodipodi:nodetypes="ccc" /></g></svg>
