<?xml version="1.0" encoding="UTF-8" standalone="no"?>
<!-- Created with Inkscape (http://www.inkscape.org/) -->

<svg
   width="963.59399mm"
   height="402.0723mm"
   viewBox="0 0 963.594 402.07229"
   version="1.1"
   id="svg1"
   xml:space="preserve"
   inkscape:version="1.3 (0e150ed6c4, 2023-07-21)"
   sodipodi:docname="Banner4.svg"
   xmlns:inkscape="http://www.inkscape.org/namespaces/inkscape"
   xmlns:sodipodi="http://sodipodi.sourceforge.net/DTD/sodipodi-0.dtd"
   xmlns:xlink="http://www.w3.org/1999/xlink"
   xmlns="http://www.w3.org/2000/svg"
   xmlns:svg="http://www.w3.org/2000/svg"><sodipodi:namedview
     id="namedview1"
     pagecolor="#ffffff"
     bordercolor="#000000"
     borderopacity="0.25"
     inkscape:showpageshadow="2"
     inkscape:pageopacity="0.0"
     inkscape:pagecheckerboard="0"
     inkscape:deskcolor="#d1d1d1"
     inkscape:document-units="mm"
     inkscape:zoom="0.048334561"
     inkscape:cx="-5306.7617"
     inkscape:cy="175.8576"
     inkscape:window-width="1920"
     inkscape:window-height="1111"
     inkscape:window-x="-9"
     inkscape:window-y="-9"
     inkscape:window-maximized="1"
     inkscape:current-layer="layer1"
     showguides="false"><inkscape:page
       x="-3.9944021e-05"
       y="6.5187478e-06"
       width="963.59399"
       height="402.0723"
       id="page3"
       margin="0"
       bleed="0" /></sodipodi:namedview><defs
     id="defs1"><clipPath
       clipPathUnits="userSpaceOnUse"
       id="clipPath99"><rect
         style="opacity:0.358289;fill:#f2f2f2;fill-opacity:1;stroke:none;stroke-width:0.170675;stroke-dasharray:none;stroke-opacity:1"
         id="rect100"
         width="894.54138"
         height="441.31995"
         x="-819.65833"
         y="1219.1698" /></clipPath></defs><g
     inkscape:label="Layer 1"
     inkscape:groupmode="layer"
     id="layer1"
     transform="translate(2478.0296,-1015.0313)"><g
       id="g18"
       transform="translate(-884.08559,-304.62764)"><circle
         style="fill:#fcac1b;fill-opacity:1;stroke:none;stroke-width:3.60314"
         id="circle3"
         cx="-478.25696"
         cy="625.52063"
         r="57.530224"
         transform="matrix(-0.78147262,0.62393954,0.62393954,0.78147262,0,0)" /><circle
         style="fill:#fcac1b;fill-opacity:1;stroke:none;stroke-width:2.90139"
         id="circle4"
         cx="-653.45062"
         cy="439.32672"
         r="46.325562"
         transform="rotate(-132.09134)" /><text
         xml:space="preserve"
         style="font-style:normal;font-variant:normal;font-weight:normal;font-stretch:normal;font-size:14.1111px;line-height:0;font-family:Teko;-inkscape-font-specification:Teko;letter-spacing:1.32292px;fill:#161946;fill-opacity:1;stroke:none;stroke-width:4.99999"
         id="text6-9"><textPath
           xlink:href="#circle4"
           id="textPath17"
           style="font-style:normal;font-variant:normal;font-weight:normal;font-stretch:normal;font-family:'Microsoft Sans Serif';-inkscape-font-specification:'Microsoft Sans Serif';letter-spacing:1.32292px;fill:#161946;fill-opacity:1;stroke-width:5">QUALITY</textPath></text><text
         xml:space="preserve"
         style="font-style:normal;font-variant:normal;font-weight:normal;font-stretch:normal;font-size:14.1111px;line-height:0;font-family:Teko;-inkscape-font-specification:Teko;letter-spacing:1.05833px;fill:#171a48;fill-opacity:1;stroke:none;stroke-width:4.99999"
         id="text15"><textPath
           xlink:href="#circle3"
           id="textPath18"
           style="font-style:normal;font-variant:normal;font-weight:normal;font-stretch:normal;font-family:'Microsoft Sans Serif';-inkscape-font-specification:'Microsoft Sans Serif';fill:#171a48;fill-opacity:1;stroke-width:5">EXCELLENCE</textPath></text></g><g
       id="g4"><ellipse
         style="fill:#f2f2f2;fill-opacity:1;stroke:#ffffff;stroke-width:0.49202;stroke-dasharray:none;stroke-opacity:1"
         id="path87"
         cx="-383.87848"
         cy="1493.5907"
         rx="548.15961"
         ry="262.33389"
         clip-path="url(#clipPath99)"
         transform="matrix(1.0733265,0,0,0.93618605,-1598.2685,-137.42389)" /><path
         style="fill:#b2c8cc;fill-opacity:1;stroke-width:1.36047"
         d="m -2341.069,1384.0239 c -6.1676,-4.0301 -8.0192,-21.0343 -3.4689,-31.8562 2.3571,-5.606 4.9302,-9.5483 5.718,-8.7604 0.7877,0.7877 1.5792,-4.1699 1.7587,-11.0168 0.1796,-6.847 1.9548,-14.4112 3.9451,-16.8093 3.6158,-4.3569 19.3795,-53.7342 19.3795,-60.7036 0,-2.0276 -3.5654,-5.3111 -7.923,-7.2966 -5.1393,-2.3415 -7.9231,-6.1949 -7.9231,-10.967 0,-4.0464 -1.6655,-9.0228 -3.7013,-11.0584 -4.7947,-4.7947 1.6169,-27.7804 8.4842,-30.4156 2.824,-1.0836 4.7247,-5.8905 4.7247,-11.9483 0,-5.5744 0.9539,-9.1814 2.1198,-8.0157 1.1658,1.166 4.4291,0.03 7.2518,-2.5247 7.2788,-6.5873 39.2316,-8.7409 46.6191,-3.1423 3.1948,2.4212 8.914,4.4475 12.7095,4.503 3.7953,0.056 9.7102,3.6725 13.144,8.0379 3.507,4.4586 10.9002,8.7382 16.8683,9.7645 25.2895,4.3492 31.0614,13.4228 16.9635,26.6671 -4.3578,4.0938 -7.9231,9.2856 -7.9231,11.5372 0,8.7469 -10.8037,26.1315 -17.244,27.7479 -8.5207,2.1385 -15.2924,9.0257 -27.4422,27.9101 -5.2735,8.1969 -12.0072,15.6711 -14.9637,16.6095 -2.9565,0.9383 -6.7888,4.9195 -8.5163,8.8472 -1.7274,3.9276 -5.9932,7.6649 -9.4792,8.3051 -3.4862,0.6403 -7.4789,3.1444 -8.8729,5.5646 -1.3939,2.4203 -4.9591,4.4224 -7.9229,4.4492 -3.9971,0.035 -4.338,0.715 -1.3202,2.63 3.075,1.9512 2.077,4.573 -4.0875,10.7375 -5.3917,5.3917 -6.8164,8.6027 -4.2034,9.4737 2.7219,0.9072 1.7744,3.6557 -3.0432,8.8267 -7.5548,8.1092 -8.89,14.2767 -3.7749,17.4381 1.7715,1.0947 2.4004,3.3181 1.3976,4.9408 -2.1634,3.5003 -14.218,3.8286 -19.274,0.5248 z m 803.7867,-5.79 c 0,-4.8378 11.6286,-15.903 15.3936,-14.648 3.3708,1.1236 3.5034,0.041 0.6486,-5.2928 -1.9736,-3.6877 -2.6505,-6.7051 -1.5043,-6.7051 1.1463,0 0.2222,-2.4956 -2.0535,-5.546 -2.2757,-3.0503 -0.5457,-1.9807 3.8445,2.3768 7.3366,7.2822 8.8978,19.0153 2.5302,19.0153 -1.4223,0 -3.4912,2.8522 -4.5977,6.3384 -1.7578,5.5382 -14.2614,9.4497 -14.2614,4.4614 z m -763.7775,-8.8761 c 0,-0.6851 2.1392,-2.0664 4.7538,-3.0697 2.6145,-1.0034 4.7537,-0.4429 4.7537,1.2455 0,1.6883 -2.1392,3.0697 -4.7537,3.0697 -2.6146,0 -4.7538,-0.5605 -4.7538,-1.2455 z m 700.301,-16.2966 c -2.189,-2.6376 -3.2677,-5.5076 -2.3973,-6.378 2.2385,-2.2387 11.9973,1.8747 11.9973,5.0569 0,5.2334 -5.702,6.0179 -9.6,1.3211 z m -13.3767,-16.3345 c -3.0503,-0.7971 -5.5461,-2.8728 -5.5461,-4.6125 0,-3.9658 -8.0773,-12.2181 -11.9592,-12.2181 -1.5974,0 -5.6212,-3.0053 -8.9416,-6.6783 -5.1594,-5.707 -8.3419,-6.3971 -21.8833,-4.7438 -8.7153,1.064 -19.0376,2.8049 -22.9382,3.8686 -5.1771,1.4119 -7.6337,0.3394 -9.0972,-3.9715 -1.1028,-3.2481 -4.7965,-11.9332 -8.2083,-19.3004 -7.7669,-16.7711 -6.5597,-23.5288 4.7429,-26.5515 4.8774,-1.3042 11.704,-5.9769 15.1702,-10.3836 3.93,-4.9961 8.1683,-7.2959 11.2594,-6.1097 2.7264,1.0462 6.001,0.2129 7.277,-1.8518 2.9888,-4.8358 19.2248,0.859 19.2248,6.7433 0,2.2384 2.8522,5.8511 6.3384,8.0283 5.761,3.5979 6.3422,3.1621 6.3809,-4.7837 l 0.042,-8.7422 7.0882,8.9479 c 3.8986,4.9214 13.6357,17.0436 21.6382,26.9383 17.0582,21.0917 19.8081,29.4911 14.9567,45.684 -3.6532,12.1929 -8.7345,14.1298 -25.5451,9.7367 z m -411.2823,-56.652 c -1.6999,-4.471 -3.0907,-9.4626 -3.0907,-11.0921 0,-1.6296 -1.2674,-2.9629 -2.8166,-2.9629 -1.549,0 -3.8158,-5.3481 -5.0374,-11.8846 -1.2214,-6.5365 -3.6832,-13.6541 -5.4704,-15.817 -1.8199,-2.2024 -2.307,-8.4765 -1.1069,-14.2614 3.6516,-17.6031 2.2022,-28.4591 -4.7941,-35.9064 -4.4591,-4.7464 -6.0428,-9.3143 -4.6982,-13.5507 2.7245,-8.5841 -15.6051,-17.9402 -27.0617,-13.8132 -17.0155,6.1293 -32.5141,4.3236 -43.4295,-5.06 -9.6442,-8.2908 -10.27,-9.9724 -8.2994,-22.2962 2.0862,-13.0461 4.2655,-15.9621 26.4318,-35.3687 5.979,-5.2345 9.0886,-9.5172 6.9103,-9.5172 -2.2944,0 -3.5343,-2.9997 -2.9477,-7.1307 0.7666,-5.3977 3.7085,-7.5767 12.1049,-8.9653 8.9929,-1.4874 9.9923,-2.3207 5.2804,-4.4025 -4.5747,-2.0214 -4.912,-3.1384 -1.5845,-5.2476 3.3924,-2.1505 3.2885,-2.6988 -0.5267,-2.7766 -4.2256,-0.086 -4.2256,-0.4385 0,-3.1692 2.8565,-1.846 3.2473,-3.0915 0.9794,-3.1208 -2.076,-0.027 -4.6559,1.3776 -5.7331,3.1208 -1.0774,1.743 -4.3703,3.1374 -7.3178,3.0987 -4.1843,-0.054 -3.6223,-1.429 2.5639,-6.2679 9.945,-7.7791 11.3956,-7.7791 19.7453,0 6.5078,6.0628 6.5365,6.3491 0.6598,6.5886 -3.379,0.1375 -4.4675,0.9339 -2.4189,1.7697 2.0486,0.8359 9.3829,-1.3669 16.2983,-4.895 9.6839,-4.9403 16.1356,-5.9926 28.0727,-4.5788 17.1565,2.0319 25.5847,-2.9545 19.7211,-11.6676 -2.6303,-3.9088 -3.9224,-3.5141 -8.1282,2.4831 -5.1221,7.3038 -15.0557,9.5167 -18.4035,4.0999 -1.0302,-1.6668 -3.9666,-2.2274 -6.5254,-1.2455 -2.5587,0.9818 -7.1481,0.7846 -10.1985,-0.4386 -4.0049,-1.6059 0.6182,-4.3342 16.6383,-9.8189 23.5877,-8.0756 41.8316,-9.2847 64.9687,-4.3054 7.8437,1.688 30.6621,2.8391 50.7072,2.5578 20.0452,-0.2812 41.4373,-0.5495 47.5381,-0.5963 27.915,-0.214 82.021,5.2966 93.4914,9.522 6.9723,2.5684 20.5205,6.6238 30.1075,9.0121 39.42,9.8204 47.1821,12.0263 74.4761,21.1648 49.8786,16.7003 60.5666,20.752 73.2112,27.7539 6.7965,3.7636 9.5051,5.9161 6.0189,4.7834 -3.4861,-1.1327 -12.0431,-2.6914 -19.0152,-3.4636 -6.9723,-0.7724 -14.6407,-2.0932 -17.041,-2.9355 -2.4004,-0.8423 -5.9656,0.6059 -7.9231,3.2183 -2.521,3.3647 -4.945,3.8428 -8.3126,1.6397 -4.1743,-2.7311 -4.185,-3.4758 -0.088,-6.1088 4.1073,-2.6403 4.1073,-3.1653 0,-4.3915 -8.7622,-2.616 -38.416,-8.4558 -42.9372,-8.4558 -7.745,0 -4.9449,4.7853 4.9956,8.5374 5.2293,1.9738 9.4858,5.4952 9.4591,7.8256 -0.039,3.4353 -0.5419,3.4591 -2.6567,0.1251 -2.0832,-3.2841 -3.4272,-3.1246 -6.6779,0.7923 -2.2384,2.6971 -7.3763,4.9038 -11.4177,4.9038 -8.1148,0 -12.8175,4.7739 -7.7737,7.8911 4.1421,2.5599 4.1772,7.9549 0.052,7.9549 -1.7431,0 -3.1692,-1.6256 -3.1692,-3.6121 0,-4.9402 -9.8271,-12.0103 -16.8647,-12.1331 -5.2578,-0.091 -5.3266,0.345 -0.7715,4.9001 10.3458,10.3458 12.186,17.2875 6.3055,23.7855 -3.0238,3.3412 -8.842,6.0748 -12.9295,6.0748 -4.0875,0 -7.4318,1.4262 -7.4318,3.1692 0,1.7432 -1.5103,3.1692 -3.3562,3.1692 -1.846,0 -2.4748,-1.426 -1.3976,-3.1692 1.0772,-1.743 -0.2647,-3.1692 -2.9821,-3.1692 -6.9507,0 -6.1466,5.4701 1.3974,9.5076 3.4862,1.8658 6.3385,6.0417 6.3385,9.28 0,6.1763 -9.2603,11.741 -12.4234,7.4657 -1.0109,-1.3665 -4.3338,-4.4417 -7.3841,-6.834 -9.5558,-7.494 -6.819,3.3669 3.8636,15.3322 5.1752,5.7968 8.7275,11.6431 7.8938,12.992 -0.8337,1.349 0.7407,4.7091 3.4986,7.4669 2.7578,2.758 4.5438,7.4577 3.9686,10.4439 -0.7913,4.11 -5.0835,1.2201 -17.6587,-11.8895 -18.1755,-18.9479 -21.2901,-25.2793 -8.2245,-16.7183 8.3034,5.4405 8.3552,5.426 4.7368,-1.335 -2.0121,-3.7597 -5.0769,-7.7124 -6.8105,-8.7839 -1.7338,-1.0715 -3.1522,-4.2239 -3.1522,-7.0056 0,-6.3662 -23.9368,-29.4296 -30.5442,-29.4296 -9.4582,0 -23.3323,10.6597 -23.3323,17.9269 0,3.8788 1.4262,7.934 3.1692,9.0112 1.7432,1.0773 3.1692,3.3007 3.1692,4.9409 0,1.6402 -1.426,2.9822 -3.1692,2.9822 -1.743,0 -3.1692,-2.0945 -3.1692,-4.6543 0,-2.7422 -1.869,-3.9372 -4.5494,-2.9086 -2.9494,1.1319 -7.5641,-3.0832 -13.1206,-11.9839 -11.1728,-17.8973 -26.2824,-30.8616 -36.2063,-31.0659 -10.6634,-0.2195 -37.7658,-8.6121 -43.7467,-13.5465 -3.9691,-3.2747 -4.545,-3.1376 -3.2555,0.7752 0.8617,2.6146 5.7285,6.018 10.8153,7.5632 5.0867,1.5452 11.3878,3.5542 14.0024,4.4647 2.6147,0.9104 5.8235,1.4287 7.1307,1.152 3.9257,-0.831 2.6777,8.0016 -1.5846,11.2148 -2.1788,1.6426 -10.3791,5.0209 -18.2228,7.5076 -14.2654,4.5224 -16.0945,4.991 -22.3716,5.7319 -1.8459,0.218 -2.4478,1.8661 -1.3373,3.6627 1.1708,1.8944 6.5737,2.4119 12.8637,1.2319 5.9649,-1.119 10.8452,-1.0691 10.8452,0.1115 0,5.9532 -8.4604,17.321 -21.6188,29.0482 l -14.6516,13.0578 4.1891,16.3449 c 4.5452,17.7348 2.5091,23.5715 -9.5593,27.4018 -3.6433,1.1564 -5.8204,4.2521 -5.2709,7.4954 1.5114,8.9214 -14.0114,35.6713 -24.3632,41.9842 -5.247,3.1998 -14.9233,5.8232 -21.5029,5.8297 -9.9308,0.014 -12.4881,-1.3692 -15.0538,-8.1175 z m 79.3086,-143.3987 c 0,-4.3468 -28.3039,-34.1366 -28.417,-29.9087 -0.059,2.1788 1.0128,3.9614 2.38,3.9614 1.3672,0 4.9826,4.2266 8.034,9.3923 8.3526,14.1398 18.003,23.014 18.003,16.555 z m -25.3883,-43.3363 c 2.937,-3.5388 0.9126,-4.7506 -10.8948,-6.5212 -7.9763,-1.1961 -15.2818,-3.4363 -16.2348,-4.9783 -0.953,-1.5419 -3.1588,-2.8035 -4.9019,-2.8035 -1.7431,0 -2.2878,1.4262 -1.2105,3.1692 3.4777,5.6269 -4.1671,3.3763 -16.1475,-4.7537 -6.4214,-4.3577 -13.2589,-7.8265 -15.1945,-7.7086 -1.9356,0.1184 -0.2702,1.7801 3.7009,3.6934 8.3347,4.016 7.7187,10.0023 -1.1443,11.1189 -5.8578,0.738 -5.8543,0.6716 0.1006,-1.8471 5.462,-2.3104 4.9493,-3.0404 -4.4344,-6.3115 -13.0041,-4.5332 -28.6802,-4.8227 -28.6802,-0.5298 0,1.7431 -2.1392,3.1692 -4.7537,3.1692 -2.6146,0 -4.7539,1.2083 -4.7539,2.6849 0,1.4767 -3.2088,4.3663 -7.1307,6.4212 -7.0456,3.6917 -7.0362,3.714 0.7924,1.8668 22.1472,-5.226 35.1772,-5.4182 38.9535,-0.5749 4.7305,6.0674 9.7639,6.9798 42.4171,7.6889 18.6455,0.4049 26.9209,-0.656 29.5169,-3.7839 z m 53.911,-7.5765 c 0,-1.5296 -2.2066,-4.6126 -4.9038,-6.851 -3.9168,-3.2507 -4.0762,-4.5947 -0.7923,-6.6779 2.9149,-1.8491 2.1901,-2.6222 -2.491,-2.6566 -9.6655,-0.071 -11.1136,2.908 -5.5449,11.407 4.7973,7.3215 13.732,10.4307 13.732,4.7785 z m -44.496,-13.8636 c -4.9872,-4.6463 -7.5233,-5.2268 -10.833,-2.48 -2.9807,2.4737 -4.9604,2.5528 -6.3806,0.2548 -1.4394,-2.3289 -3.9356,-2.3274 -8.294,0 -9.6623,5.1713 -5.0749,7.749 14.29,8.0296 17.6151,0.2554 17.6873,0.218 11.2176,-5.8095 z m -3.9003,-35.9772 c -1.0532,-1.0532 -3.7866,-1.1657 -6.0744,-0.2502 -2.5281,1.0116 -1.7772,1.7626 1.9147,1.9147 3.3409,0.1377 5.2128,-0.6114 4.1597,-1.6645 z m 29.8653,204.9405 c 0.087,-11.278 1.3924,-16.0429 4.3941,-16.0429 2.3485,0 6.3545,-2.9762 8.9024,-6.6138 4.3579,-6.2217 4.7395,-6.2687 6.4353,-0.7924 0.9915,3.2019 -0.03,12.9522 -2.2687,21.6675 -3.1196,12.141 -5.6518,16.0774 -10.8295,16.8352 -6.1511,0.9003 -6.7467,-0.4513 -6.6336,-15.0536 z m 316.4308,3.8796 c -4.2646,-2.987 -9.93,-5.5953 -12.5897,-5.7962 -13.9332,-1.0525 -15.9279,-1.8352 -15.9279,-6.2499 0,-6.3607 -18.4574,-17.3916 -24.9751,-14.9263 -4.1067,1.5534 -3.9467,0.7461 0.8003,-4.0403 5.688,-5.735 6.1042,-5.7473 10.0891,-0.2976 2.2859,3.1262 5.72,4.7177 7.6312,3.5365 5.0084,-3.0953 28.9725,11.8706 37.4491,23.3875 8.3418,11.3341 8.0869,11.7855 -2.477,4.3863 z m 4.759,-10.4149 c 1.0772,-1.743 2.5875,-3.1692 3.3562,-3.1692 0.7686,0 1.3976,1.4262 1.3976,3.1692 0,1.743 -1.5103,3.1692 -3.3563,3.1692 -1.8459,0 -2.4748,-1.4262 -1.3975,-3.1692 z m -88.7377,-6.3384 c -5.5753,-2.3958 -5.2666,-2.7505 2.564,-2.9465 5.1728,-0.1293 8.0817,1.1049 6.9437,2.9465 -1.0774,1.743 -2.231,3.0689 -2.564,2.9465 -0.3329,-0.1225 -3.4576,-1.4485 -6.9437,-2.9465 z m -24.5613,-7.2979 c -6.5365,-1.8302 -11.8845,-4.5983 -11.8845,-6.1515 0,-1.5531 3.2088,-1.8242 7.1307,-0.6024 13.7842,4.2941 21.3922,7.5729 21.3922,9.2195 0,2.0077 -1.4076,1.7991 -16.6384,-2.4656 z m 25.0336,-6.8758 c -1.1313,-2.948 -2.0569,-7.4843 -2.0569,-10.0809 0,-4.0898 0.6599,-4.061 4.936,0.2151 3.3854,3.3854 4.0315,6.5521 2.0568,10.0808 -2.6344,4.7075 -3.0541,4.6891 -4.9359,-0.215 z m 7.4507,1.3099 c 0,-1.846 1.4262,-2.4748 3.1692,-1.3976 1.7431,1.0772 3.1692,2.5876 3.1692,3.3563 0,0.7686 -1.4261,1.3974 -3.1692,1.3974 -1.743,0 -3.1692,-1.5102 -3.1692,-3.3561 z m -30.8996,-9.2859 c -5.665,-3.4539 -10.3,-8.176 -10.3,-10.4934 0,-6.091 21.926,-16.147 23.8321,-10.9302 3.4314,9.3918 2.8653,27.734 -0.8554,27.7154 -1.3073,0 -7.0119,-2.8378 -12.6767,-6.2918 z m 30.3054,-5.3688 c 2.2877,-0.9156 5.0212,-0.803 6.0743,0.2502 1.0532,1.053 -0.8187,1.8021 -4.1596,1.6645 -3.6919,-0.1521 -4.4429,-0.9031 -1.9147,-1.9147 z m -1.6899,-15.2975 c -3.0454,-3.3502 -3.0454,-4.5893 0,-5.8232 2.2014,-0.8921 1.4784,-1.6755 -1.6773,-1.8178 -3.0504,-0.1376 -5.5462,-2.2368 -5.5462,-4.665 0,-2.428 -2.1392,-5.2356 -4.7538,-6.2389 -5.2764,-2.0247 -6.5827,-11.5307 -1.5845,-11.5307 1.743,0 3.1691,2.1392 3.1691,4.7537 0,2.6147 1.4261,4.7539 3.1692,4.7539 1.7431,0 3.1692,2.3769 3.1692,5.282 0,2.905 0.9417,4.3403 2.0927,3.1894 1.1509,-1.151 4.1683,0.8707 6.7052,4.4926 5.2688,7.5223 1.164,14.1025 -4.7436,7.604 z m -639.1197,-8.1748 c -4.8018,-3.7771 -14.1757,-7.0051 -21.8196,-7.5139 -7.3707,-0.4906 -15.8969,-1.076 -18.9472,-1.301 -3.0504,-0.225 -5.5461,-2.3301 -5.5461,-4.678 0,-2.3479 -3.059,-7.6959 -6.7977,-11.8845 l -6.7977,-7.6156 1.7483,7.1351 c 0.9616,3.9243 0.4553,6.3358 -1.1252,5.359 -1.5806,-0.9768 -2.8737,-3.6571 -2.8737,-5.9562 0,-2.2991 -3.0409,-6.1993 -6.7577,-8.6672 -6.4874,-4.3075 -6.5503,-4.8879 -1.5711,-14.5166 l 5.1866,-10.0298 -12.3576,-3.7025 c -11.3526,-3.4013 -14.1927,-2.8567 -34.9152,6.695 -24.4719,11.2798 -31.4391,10.7638 -18.3578,-1.3595 8.4398,-7.8218 23.9962,-14.4225 64.6458,-27.4294 12.5461,-4.0146 22.1906,-8.3032 21.4323,-9.5301 -1.732,-2.8024 12.238,-8.2066 27.9439,-10.8098 7.1873,-1.1914 11.1512,-3.3136 9.9174,-5.3098 -1.3567,-2.1953 0.1579,-2.1409 4.4574,0.1601 9.4372,5.0507 17.4807,4.4384 15.3297,-1.1669 -0.9819,-2.5587 -0.4214,-5.4952 1.2456,-6.5255 1.6669,-1.0301 3.0307,-0.3628 3.0307,1.4832 0,1.8459 1.4262,3.3562 3.1692,3.3562 1.7431,0 3.1693,-1.7911 3.1693,-3.9801 0,-6.6325 37.7532,-19.418 68.0913,-23.0598 8.4534,-1.0148 28.3415,-4.514 44.1956,-7.776 15.8543,-3.2622 41.6424,-6.897 57.3069,-8.0772 l 28.4812,-2.1459 -8.307,8.0078 c -5.252,5.0627 -16.3246,9.9476 -30.1074,13.2823 -11.9902,2.9009 -25.6645,8.0051 -30.3874,11.3425 -10.2866,7.2691 -18.164,7.6903 -26.4608,1.415 -4.7384,-3.5839 -5.0596,-4.709 -1.3981,-4.8967 2.6147,-0.1347 0.4755,-2.1202 -4.7537,-4.4137 -5.2292,-2.2934 -10.5858,-3.5658 -11.9037,-2.8273 -1.3179,0.7383 -8.4487,1.3348 -15.8461,1.3251 -7.3974,-0.014 -17.7282,1.6836 -22.9575,3.7627 l -9.5076,3.7799 15.1315,1.5847 c 17.2969,1.8113 20.2767,6.4656 7.1017,11.0921 -6.7154,2.3583 -9.3632,2.1556 -10.3471,-0.7923 -2.1031,-6.3016 -17.9009,-4.6675 -22.9783,2.3769 -2.5126,3.4862 -7.0388,6.3384 -10.0581,6.3384 -6.9311,0 -21.6339,6.5904 -21.6339,9.6973 0,3.7824 29.7902,5.1428 33.454,1.5278 1.8405,-1.8161 4.2362,-5.6534 5.3235,-8.5273 2.1789,-5.7589 33.2607,-10.0166 38.7095,-5.3026 1.6559,1.4327 5.4114,2.6048 8.3457,2.6048 2.9343,0 6.0807,2.8524 6.9924,6.3384 1.2424,4.7506 0.098,6.3384 -4.5712,6.3384 -3.4258,0 -5.3473,-1.4261 -4.2701,-3.1692 2.7142,-4.3914 -4.5082,-3.7213 -15.8459,1.4702 -6.5307,2.9904 -7.7125,4.434 -3.7745,4.6109 8.3668,0.3756 3.1498,6.5958 -5.5321,6.5958 -4.0414,0 -9.1233,2.1392 -11.2932,4.7537 -2.17,2.6146 -5.8064,4.7538 -8.0811,4.7538 -2.2747,0 -6.762,3.3388 -9.9721,7.4197 -3.2099,4.0809 -9.018,9.1225 -12.9067,11.2037 -4.3787,2.3434 -7.0705,6.758 -7.0705,11.5956 0,4.2962 -1.4262,7.8114 -3.1692,7.8114 -1.7431,0 -3.1693,-2.1392 -3.1693,-4.7538 0,-5.0561 -11.1362,-6.6412 -14.0084,-1.9939 -0.9381,1.5179 -5.8419,3.5871 -10.8973,4.5982 -11.1852,2.2371 -19.4631,9.987 -19.4631,18.2219 0,7.4083 10.106,8.2745 15.8461,1.3582 5.6418,-6.798 10.2885,-5.8687 7.9229,1.5847 -1.4649,4.6156 -0.5695,6.3384 3.2947,6.3384 3.4728,0 4.6603,1.6841 3.4362,4.8737 -1.0641,2.7734 0.1555,5.6512 2.8301,6.6775 5.0445,1.9357 6.495,7.4639 1.9587,7.4639 -1.5081,0 -6.5302,-2.9798 -11.1602,-6.6219 z m 24.9941,-78.9464 c 1.0773,-1.7432 0.4484,-3.1692 -1.3975,-3.1692 -1.846,0 -3.3563,1.426 -3.3563,3.1692 0,1.743 0.629,3.1691 1.3976,3.1691 0.7687,0 2.279,-1.4261 3.3562,-3.1691 z m -56.3193,-17.7608 c -1.053,-1.0531 -3.7865,-1.1656 -6.0743,-0.2502 -2.5281,1.0117 -1.7773,1.7627 1.9148,1.9148 3.3407,0.1375 5.2126,-0.6114 4.1595,-1.6646 z m 70.5808,-20.2696 c -6.1444,-3.9708 -9.5076,-3.9708 -9.5076,0 0,1.743 3.2088,3.1473 7.1306,3.1206 5.7662,-0.039 6.221,-0.6364 2.377,-3.1206 z m 1.5846,88.7375 c 1.0772,-1.743 4.3702,-3.1473 7.3176,-3.1206 4.6184,0.042 4.7021,0.4732 0.6053,3.1206 -6.2064,4.011 -10.4019,4.011 -7.9229,0 z m -14.2614,-3.3562 c 0,-1.8459 1.4261,-2.4749 3.1692,-1.3975 1.743,1.0772 3.1692,2.5876 3.1692,3.3563 0,0.7685 -1.4262,1.3974 -3.1692,1.3974 -1.7431,0 -3.1692,-1.5102 -3.1692,-3.3562 z m 611.6558,-18.8281 c 0,-1.7431 3.3907,-3.1692 7.535,-3.1692 4.1442,0 9.3103,-2.1392 11.4803,-4.7539 2.9399,-3.5425 2.9912,-4.7538 0.2009,-4.7538 -2.0593,0 -2.8042,-1.521 -1.6553,-3.3801 2.9425,-4.7609 6.1819,-0.6143 6.3517,8.1305 0.1101,5.6839 -1.9967,7.8217 -9.1115,9.2446 -12.6865,2.5373 -14.8011,2.349 -14.8011,-1.3181 z m -429.4267,-85.5685 c 3.486,-1.498 9.1906,-2.8021 12.6767,-2.8979 5.2315,-0.1438 5.5082,0.3623 1.5847,2.8979 -2.6146,1.6897 -8.3192,2.9937 -12.6769,2.898 -7.2561,-0.1596 -7.3895,-0.4036 -1.5845,-2.898 z m 204.4134,-12.5319 c 2.6146,-1.7695 7.4872,-3.2389 10.8281,-3.2656 8.1083,-0.065 5.5786,1.7492 -6.0743,4.3557 -6.9435,1.5532 -8.2256,1.2591 -4.7538,-1.0901 z"
         id="path75" /><g
         id="g32"
         transform="matrix(0.435157,0,0,0.435157,-2568.465,686.59368)"><g
           id="g15"><path
             id="path10"
             style="fill:#800000;stroke-width:5.77762"
             d="m 489.14738,889.35856 a 18.328001,18.328001 0 0 0 -18.32808,18.32808 18.328001,18.328001 0 0 0 4.6545,12.18013 l 13.66738,29.21217 a 12.919738,12.42976 0 0 0 -12.91342,12.42922 12.919738,12.42976 0 0 0 12.91962,12.42973 12.919738,12.42976 0 0 0 12.91963,-12.42973 12.919738,12.42976 0 0 0 -12.91342,-12.42973 l 13.66738,-29.21166 a 18.328001,18.328001 0 0 0 4.6545,-12.18013 18.328001,18.328001 0 0 0 -18.32809,-18.32808 z" /><path
             sodipodi:type="star"
             style="fill:#ffffff;stroke-width:4.99999"
             id="path12"
             inkscape:flatsided="false"
             sodipodi:sides="5"
             sodipodi:cx="488.19226"
             sodipodi:cy="960.17596"
             sodipodi:r1="13.005248"
             sodipodi:r2="5.2020993"
             sodipodi:arg1="-0.26179939"
             sodipodi:arg2="0.36651914"
             inkscape:rounded="0"
             inkscape:randomized="0"
             d="m 500.75437,956.80996 -7.70553,5.23027 2.22659,9.04285 -7.35543,-5.71215 -7.91221,4.91201 3.15963,-8.76057 -7.1166,-6.00707 9.30817,0.29782 3.51391,-8.62458 2.59315,8.94463 z"
             inkscape:transform-center-x="-0.0023785914"
             inkscape:transform-center-y="-1.0559436"
             transform="matrix(0.85094838,-0.04400205,0.04400205,0.85094838,31.670551,166.17759)" /></g><path
           style="fill:#ffffff;fill-opacity:1;stroke:#ffffff;stroke-width:0.185002"
           d="m 477.78058,906.579 0.0126,-11.15933 0.16001,-0.16001 0.16003,-0.16003 h 11.06048 11.06047 l 0.16002,0.16003 0.16003,0.16001 0.0126,11.15933 0.0126,11.15931 h -2.79036 -2.79037 v -10.13234 -10.13233 h -1.54188 -1.54188 v 10.13233 10.13234 h -2.76556 -2.7656 v -10.08339 -10.0834 h -1.61531 -1.61529 v 10.0834 10.08339 h -2.69248 -2.69249 z"
           id="path16" /></g><g
         id="g36"
         transform="matrix(0.27280537,0,0,0.27280537,-2538.4066,865.90965)"><g
           id="g35"><path
             id="path34"
             style="fill:#800000;stroke-width:5.77762"
             d="m 489.14738,889.35856 a 18.328001,18.328001 0 0 0 -18.32808,18.32808 18.328001,18.328001 0 0 0 4.6545,12.18013 l 13.66738,29.21217 a 12.919738,12.42976 0 0 0 -12.91342,12.42922 12.919738,12.42976 0 0 0 12.91962,12.42973 12.919738,12.42976 0 0 0 12.91963,-12.42973 12.919738,12.42976 0 0 0 -12.91342,-12.42973 l 13.66738,-29.21166 a 18.328001,18.328001 0 0 0 4.6545,-12.18013 18.328001,18.328001 0 0 0 -18.32809,-18.32808 z" /><path
             sodipodi:type="star"
             style="fill:#ffffff;stroke-width:4.99999"
             id="path35"
             inkscape:flatsided="false"
             sodipodi:sides="5"
             sodipodi:cx="488.19226"
             sodipodi:cy="960.17596"
             sodipodi:r1="13.005248"
             sodipodi:r2="5.2020993"
             sodipodi:arg1="-0.26179939"
             sodipodi:arg2="0.36651914"
             inkscape:rounded="0"
             inkscape:randomized="0"
             d="m 500.75437,956.80996 -7.70553,5.23027 2.22659,9.04285 -7.35543,-5.71215 -7.91221,4.91201 3.15963,-8.76057 -7.1166,-6.00707 9.30817,0.29782 3.51391,-8.62458 2.59315,8.94463 z"
             inkscape:transform-center-x="-0.0023785914"
             inkscape:transform-center-y="-1.0559436"
             transform="matrix(0.85094838,-0.04400205,0.04400205,0.85094838,31.670551,166.17759)" /></g><path
           style="fill:#ffffff;fill-opacity:1;stroke:#ffffff;stroke-width:0.185002"
           d="m 477.78058,906.579 0.0126,-11.15933 0.16001,-0.16001 0.16003,-0.16003 h 11.06048 11.06047 l 0.16002,0.16003 0.16003,0.16001 0.0126,11.15933 0.0126,11.15931 h -2.79036 -2.79037 v -10.13234 -10.13233 h -1.54188 -1.54188 v 10.13233 10.13234 h -2.76556 -2.7656 v -10.08339 -10.0834 h -1.61531 -1.61529 v 10.0834 10.08339 h -2.69248 -2.69249 z"
           id="path36" /></g><g
         id="g44"
         transform="matrix(0.27280537,0,0,0.27280537,-2120.4918,834.43891)"><path
           id="path43"
           style="fill:#800000;fill-opacity:1;stroke-width:5.77762"
           d="m 549.08896,888.75764 a 18.328001,18.328001 0 0 0 -18.32808,18.32808 18.328001,18.328001 0 0 0 4.6545,12.18013 l 13.66738,29.21217 a 12.919738,12.42976 0 0 0 -12.91342,12.42922 12.919738,12.42976 0 0 0 12.91962,12.42973 12.919738,12.42976 0 0 0 12.91963,-12.42973 12.919738,12.42976 0 0 0 -12.91342,-12.42973 l 13.66738,-29.21166 a 18.328001,18.328001 0 0 0 4.6545,-12.18013 18.328001,18.328001 0 0 0 -18.32809,-18.32808 z" /><path
           id="path44"
           style="fill:#ffffff;stroke-width:7.3505"
           d="m 549.08896,949.59969 a 11.09288,11.09288 0 0 0 -11.09286,11.09287 11.09288,11.09288 0 0 0 11.09286,11.09286 11.09288,11.09288 0 0 0 11.09287,-11.09286 11.09288,11.09288 0 0 0 -11.09287,-11.09287 z m 0,1.60817 a 9.485158,9.485158 0 0 1 9.48521,9.4847 9.485158,9.485158 0 0 1 -9.48521,9.48521 9.485158,9.485158 0 0 1 -9.48521,-9.48521 9.485158,9.485158 0 0 1 9.48521,-9.4847 z" /></g><g
         id="g48"
         transform="matrix(0.27280537,0,0,0.27280537,-2139.9558,849.41185)"><path
           id="path46"
           style="fill:#800000;fill-opacity:1;stroke-width:5.77762"
           d="m 549.08896,888.75764 a 18.328001,18.328001 0 0 0 -18.32808,18.32808 18.328001,18.328001 0 0 0 4.6545,12.18013 l 13.66738,29.21217 a 12.919738,12.42976 0 0 0 -12.91342,12.42922 12.919738,12.42976 0 0 0 12.91962,12.42973 12.919738,12.42976 0 0 0 12.91963,-12.42973 12.919738,12.42976 0 0 0 -12.91342,-12.42973 l 13.66738,-29.21166 a 18.328001,18.328001 0 0 0 4.6545,-12.18013 18.328001,18.328001 0 0 0 -18.32809,-18.32808 z" /><path
           id="path48"
           style="fill:#ffffff;stroke-width:7.3505"
           d="m 549.08896,949.59969 a 11.09288,11.09288 0 0 0 -11.09286,11.09287 11.09288,11.09288 0 0 0 11.09286,11.09286 11.09288,11.09288 0 0 0 11.09287,-11.09286 11.09288,11.09288 0 0 0 -11.09287,-11.09287 z m 0,1.60817 a 9.485158,9.485158 0 0 1 9.48521,9.4847 9.485158,9.485158 0 0 1 -9.48521,9.48521 9.485158,9.485158 0 0 1 -9.48521,-9.48521 9.485158,9.485158 0 0 1 9.48521,-9.4847 z" /></g><g
         id="g52"
         transform="matrix(0.27280537,0,0,0.27280537,-1990.4945,864.70625)"><path
           id="path50"
           style="fill:#800000;fill-opacity:1;stroke-width:5.77762"
           d="m 549.08896,888.75764 a 18.328001,18.328001 0 0 0 -18.32808,18.32808 18.328001,18.328001 0 0 0 4.6545,12.18013 l 13.66738,29.21217 a 12.919738,12.42976 0 0 0 -12.91342,12.42922 12.919738,12.42976 0 0 0 12.91962,12.42973 12.919738,12.42976 0 0 0 12.91963,-12.42973 12.919738,12.42976 0 0 0 -12.91342,-12.42973 l 13.66738,-29.21166 a 18.328001,18.328001 0 0 0 4.6545,-12.18013 18.328001,18.328001 0 0 0 -18.32809,-18.32808 z" /><path
           id="path52"
           style="fill:#ffffff;stroke-width:7.3505"
           d="m 549.08896,949.59969 a 11.09288,11.09288 0 0 0 -11.09286,11.09287 11.09288,11.09288 0 0 0 11.09286,11.09286 11.09288,11.09288 0 0 0 11.09287,-11.09286 11.09288,11.09288 0 0 0 -11.09287,-11.09287 z m 0,1.60817 a 9.485158,9.485158 0 0 1 9.48521,9.4847 9.485158,9.485158 0 0 1 -9.48521,9.48521 9.485158,9.485158 0 0 1 -9.48521,-9.48521 9.485158,9.485158 0 0 1 9.48521,-9.4847 z" /></g><g
         id="g56"
         transform="matrix(0.27280537,0,0,0.27280537,-1876.1459,881.68835)"><path
           id="path54"
           style="fill:#800000;fill-opacity:1;stroke-width:5.77762"
           d="m 549.08896,888.75764 a 18.328001,18.328001 0 0 0 -18.32808,18.32808 18.328001,18.328001 0 0 0 4.6545,12.18013 l 13.66738,29.21217 a 12.919738,12.42976 0 0 0 -12.91342,12.42922 12.919738,12.42976 0 0 0 12.91962,12.42973 12.919738,12.42976 0 0 0 12.91963,-12.42973 12.919738,12.42976 0 0 0 -12.91342,-12.42973 l 13.66738,-29.21166 a 18.328001,18.328001 0 0 0 4.6545,-12.18013 18.328001,18.328001 0 0 0 -18.32809,-18.32808 z" /><path
           id="path56"
           style="fill:#ffffff;stroke-width:7.3505"
           d="m 549.08896,949.59969 a 11.09288,11.09288 0 0 0 -11.09286,11.09287 11.09288,11.09288 0 0 0 11.09286,11.09286 11.09288,11.09288 0 0 0 11.09287,-11.09286 11.09288,11.09288 0 0 0 -11.09287,-11.09287 z m 0,1.60817 a 9.485158,9.485158 0 0 1 9.48521,9.4847 9.485158,9.485158 0 0 1 -9.48521,9.48521 9.485158,9.485158 0 0 1 -9.48521,-9.48521 9.485158,9.485158 0 0 1 9.48521,-9.4847 z" /></g><g
         id="g60"
         transform="matrix(0.27280537,0,0,0.27280537,-1907.1181,927.61925)"><path
           id="path58"
           style="fill:#800000;fill-opacity:1;stroke-width:5.77762"
           d="m 549.08896,888.75764 a 18.328001,18.328001 0 0 0 -18.32808,18.32808 18.328001,18.328001 0 0 0 4.6545,12.18013 l 13.66738,29.21217 a 12.919738,12.42976 0 0 0 -12.91342,12.42922 12.919738,12.42976 0 0 0 12.91962,12.42973 12.919738,12.42976 0 0 0 12.91963,-12.42973 12.919738,12.42976 0 0 0 -12.91342,-12.42973 l 13.66738,-29.21166 a 18.328001,18.328001 0 0 0 4.6545,-12.18013 18.328001,18.328001 0 0 0 -18.32809,-18.32808 z" /><path
           id="path60"
           style="fill:#ffffff;stroke-width:7.3505"
           d="m 549.08896,949.59969 a 11.09288,11.09288 0 0 0 -11.09286,11.09287 11.09288,11.09288 0 0 0 11.09286,11.09286 11.09288,11.09288 0 0 0 11.09287,-11.09286 11.09288,11.09288 0 0 0 -11.09287,-11.09287 z m 0,1.60817 a 9.485158,9.485158 0 0 1 9.48521,9.4847 9.485158,9.485158 0 0 1 -9.48521,9.48521 9.485158,9.485158 0 0 1 -9.48521,-9.48521 9.485158,9.485158 0 0 1 9.48521,-9.4847 z" /></g><g
         id="g63"
         transform="matrix(0.27280537,0,0,0.27280537,-1836.1836,861.32135)"><path
           id="path61"
           style="fill:#800000;fill-opacity:1;stroke-width:5.77762"
           d="m 549.08896,888.75764 a 18.328001,18.328001 0 0 0 -18.32808,18.32808 18.328001,18.328001 0 0 0 4.6545,12.18013 l 13.66738,29.21217 a 12.919738,12.42976 0 0 0 -12.91342,12.42922 12.919738,12.42976 0 0 0 12.91962,12.42973 12.919738,12.42976 0 0 0 12.91963,-12.42973 12.919738,12.42976 0 0 0 -12.91342,-12.42973 l 13.66738,-29.21166 a 18.328001,18.328001 0 0 0 4.6545,-12.18013 18.328001,18.328001 0 0 0 -18.32809,-18.32808 z" /><path
           id="path63"
           style="fill:#ffffff;stroke-width:7.3505"
           d="m 549.08896,949.59969 a 11.09288,11.09288 0 0 0 -11.09286,11.09287 11.09288,11.09288 0 0 0 11.09286,11.09286 11.09288,11.09288 0 0 0 11.09287,-11.09286 11.09288,11.09288 0 0 0 -11.09287,-11.09287 z m 0,1.60817 a 9.485158,9.485158 0 0 1 9.48521,9.4847 9.485158,9.485158 0 0 1 -9.48521,9.48521 9.485158,9.485158 0 0 1 -9.48521,-9.48521 9.485158,9.485158 0 0 1 9.48521,-9.4847 z" /></g><g
         id="g66"
         transform="matrix(0.27280537,0,0,0.27280537,-1857.7033,857.13825)"><path
           id="path65"
           style="fill:#800000;fill-opacity:1;stroke-width:5.77762"
           d="m 549.08896,888.75764 a 18.328001,18.328001 0 0 0 -18.32808,18.32808 18.328001,18.328001 0 0 0 4.6545,12.18013 l 13.66738,29.21217 a 12.919738,12.42976 0 0 0 -12.91342,12.42922 12.919738,12.42976 0 0 0 12.91962,12.42973 12.919738,12.42976 0 0 0 12.91963,-12.42973 12.919738,12.42976 0 0 0 -12.91342,-12.42973 l 13.66738,-29.21166 a 18.328001,18.328001 0 0 0 4.6545,-12.18013 18.328001,18.328001 0 0 0 -18.32809,-18.32808 z" /><path
           id="path66"
           style="fill:#ffffff;stroke-width:7.3505"
           d="m 549.08896,949.59969 a 11.09288,11.09288 0 0 0 -11.09286,11.09287 11.09288,11.09288 0 0 0 11.09286,11.09286 11.09288,11.09288 0 0 0 11.09287,-11.09286 11.09288,11.09288 0 0 0 -11.09287,-11.09287 z m 0,1.60817 a 9.485158,9.485158 0 0 1 9.48521,9.4847 9.485158,9.485158 0 0 1 -9.48521,9.48521 9.485158,9.485158 0 0 1 -9.48521,-9.48521 9.485158,9.485158 0 0 1 9.48521,-9.4847 z" /></g><g
         id="g69"
         transform="matrix(0.27280537,0,0,0.27280537,-1924.503,857.21435)"><path
           id="path68"
           style="fill:#800000;fill-opacity:1;stroke-width:5.77762"
           d="m 549.08896,888.75764 a 18.328001,18.328001 0 0 0 -18.32808,18.32808 18.328001,18.328001 0 0 0 4.6545,12.18013 l 13.66738,29.21217 a 12.919738,12.42976 0 0 0 -12.91342,12.42922 12.919738,12.42976 0 0 0 12.91962,12.42973 12.919738,12.42976 0 0 0 12.91963,-12.42973 12.919738,12.42976 0 0 0 -12.91342,-12.42973 l 13.66738,-29.21166 a 18.328001,18.328001 0 0 0 4.6545,-12.18013 18.328001,18.328001 0 0 0 -18.32809,-18.32808 z" /><path
           id="path69"
           style="fill:#ffffff;stroke-width:7.3505"
           d="m 549.08896,949.59969 a 11.09288,11.09288 0 0 0 -11.09286,11.09287 11.09288,11.09288 0 0 0 11.09286,11.09286 11.09288,11.09288 0 0 0 11.09287,-11.09286 11.09288,11.09288 0 0 0 -11.09287,-11.09287 z m 0,1.60817 a 9.485158,9.485158 0 0 1 9.48521,9.4847 9.485158,9.485158 0 0 1 -9.48521,9.48521 9.485158,9.485158 0 0 1 -9.48521,-9.48521 9.485158,9.485158 0 0 1 9.48521,-9.4847 z" /></g><g
         id="g73"
         transform="matrix(0.27280537,0,0,0.27280537,-2137.2833,818.835)"><path
           id="path71"
           style="fill:#800000;fill-opacity:1;stroke-width:5.77762"
           d="m 549.08896,888.75764 a 18.328001,18.328001 0 0 0 -18.32808,18.32808 18.328001,18.328001 0 0 0 4.6545,12.18013 l 13.66738,29.21217 a 12.919738,12.42976 0 0 0 -12.91342,12.42922 12.919738,12.42976 0 0 0 12.91962,12.42973 12.919738,12.42976 0 0 0 12.91963,-12.42973 12.919738,12.42976 0 0 0 -12.91342,-12.42973 l 13.66738,-29.21166 a 18.328001,18.328001 0 0 0 4.6545,-12.18013 18.328001,18.328001 0 0 0 -18.32809,-18.32808 z" /><path
           id="path73"
           style="fill:#ffffff;stroke-width:7.3505"
           d="m 549.08896,949.59969 a 11.09288,11.09288 0 0 0 -11.09286,11.09287 11.09288,11.09288 0 0 0 11.09286,11.09286 11.09288,11.09288 0 0 0 11.09287,-11.09286 11.09288,11.09288 0 0 0 -11.09287,-11.09287 z m 0,1.60817 a 9.485158,9.485158 0 0 1 9.48521,9.4847 9.485158,9.485158 0 0 1 -9.48521,9.48521 9.485158,9.485158 0 0 1 -9.48521,-9.48521 9.485158,9.485158 0 0 1 9.48521,-9.4847 z" /></g><text
         xml:space="preserve"
         style="font-style:normal;font-variant:normal;font-weight:normal;font-stretch:normal;font-size:11.2889px;line-height:0;font-family:'Copperplate Gothic Bold';-inkscape-font-specification:'Copperplate Gothic Bold, ';letter-spacing:1.32292px;fill:#1d2e6c;fill-opacity:1;stroke:none;stroke-width:4.99999"
         x="-2346.9771"
         y="1109.8531"
         id="text75"><tspan
           sodipodi:role="line"
           id="tspan75"
           style="font-style:normal;font-variant:normal;font-weight:normal;font-stretch:normal;font-family:Oswald;-inkscape-font-specification:Oswald;fill:#1d2e6c;fill-opacity:1;stroke:none;stroke-width:5"
           x="-2346.9771"
           y="1109.8531">Tulsa, OK</tspan></text><text
         xml:space="preserve"
         style="font-style:normal;font-variant:normal;font-weight:normal;font-stretch:normal;font-size:8.46667px;line-height:0;font-family:'Copperplate Gothic Bold';-inkscape-font-specification:'Copperplate Gothic Bold, ';letter-spacing:1.32292px;fill:#1d2e6c;fill-opacity:1;stroke:none;stroke-width:4.99999"
         x="-2398.98"
         y="1133.1177"
         id="text76"><tspan
           sodipodi:role="line"
           id="tspan76"
           style="font-style:normal;font-variant:normal;font-weight:normal;font-stretch:normal;font-size:8.46667px;font-family:Oswald;-inkscape-font-specification:Oswald;fill:#1d2e6c;fill-opacity:1;stroke:none;stroke-width:5"
           x="-2398.98"
           y="1133.1177">San Jose, CA</tspan></text><text
         xml:space="preserve"
         style="font-style:normal;font-variant:normal;font-weight:normal;font-stretch:normal;font-size:8.46667px;line-height:0;font-family:'Copperplate Gothic Bold';-inkscape-font-specification:'Copperplate Gothic Bold, ';letter-spacing:1.32292px;fill:#1d2e6c;fill-opacity:1;stroke:none;stroke-width:0.2;stroke-dasharray:none;stroke-opacity:1"
         x="-1798.5985"
         y="1192.1222"
         id="text77"><tspan
           sodipodi:role="line"
           id="tspan77"
           style="font-style:normal;font-variant:normal;font-weight:normal;font-stretch:normal;font-size:8.46667px;font-family:Oswald;-inkscape-font-specification:Oswald;fill:#1d2e6c;fill-opacity:1;stroke:none;stroke-width:0.2;stroke-dasharray:none;stroke-opacity:1"
           x="-1798.5985"
           y="1192.1222">Malaysia</tspan></text><text
         xml:space="preserve"
         style="font-style:normal;font-variant:normal;font-weight:normal;font-stretch:normal;font-size:8.46667px;line-height:0;font-family:'Copperplate Gothic Bold';-inkscape-font-specification:'Copperplate Gothic Bold, ';letter-spacing:1.32292px;fill:#1d2e6c;fill-opacity:1;stroke:none;stroke-width:0.2;stroke-dasharray:none;stroke-opacity:1"
         x="-1865.4016"
         y="1129.8877"
         id="text78"><tspan
           sodipodi:role="line"
           id="tspan78"
           style="font-style:normal;font-variant:normal;font-weight:normal;font-stretch:normal;font-size:8.46667px;font-family:Oswald;-inkscape-font-specification:Oswald;fill:#1d2e6c;fill-opacity:1;stroke:none;stroke-width:0.2;stroke-dasharray:none;stroke-opacity:1"
           x="-1865.4016"
           y="1129.8877">India</tspan></text><text
         xml:space="preserve"
         style="font-style:normal;font-variant:normal;font-weight:normal;font-stretch:normal;font-size:8.46667px;line-height:0;font-family:'Copperplate Gothic Bold';-inkscape-font-specification:'Copperplate Gothic Bold, ';letter-spacing:1.32292px;fill:#1d2e6c;fill-opacity:1;stroke:none;stroke-width:0.2;stroke-dasharray:none;stroke-opacity:1"
         x="-2017.4263"
         y="1114.8881"
         id="text79"><tspan
           sodipodi:role="line"
           id="tspan79"
           style="font-style:normal;font-variant:normal;font-weight:normal;font-stretch:normal;font-size:8.46667px;font-family:Oswald;-inkscape-font-specification:Oswald;fill:#1d2e6c;fill-opacity:1;stroke:none;stroke-width:0.2;stroke-dasharray:none;stroke-opacity:1"
           x="-2017.4263"
           y="1114.8881">Egypt</tspan></text><text
         xml:space="preserve"
         style="font-style:normal;font-variant:normal;font-weight:normal;font-stretch:normal;font-size:8.46667px;line-height:0;font-family:'Copperplate Gothic Bold';-inkscape-font-specification:'Copperplate Gothic Bold, ';letter-spacing:1.32292px;fill:#1d2e6c;fill-opacity:1;stroke:none;stroke-width:0.2;stroke-dasharray:none;stroke-opacity:1"
         x="-1966.8752"
         y="1100.37"
         id="text80"><tspan
           sodipodi:role="line"
           id="tspan80"
           style="font-style:normal;font-variant:normal;font-weight:normal;font-stretch:normal;font-size:8.46667px;font-family:Oswald;-inkscape-font-specification:Oswald;fill:#1d2e6c;fill-opacity:1;stroke:none;stroke-width:0.2;stroke-dasharray:none;stroke-opacity:1"
           x="-1966.8752"
           y="1100.37">Israel</tspan></text><text
         xml:space="preserve"
         style="font-style:normal;font-variant:normal;font-weight:normal;font-stretch:normal;font-size:8.46667px;line-height:0;font-family:'Copperplate Gothic Bold';-inkscape-font-specification:'Copperplate Gothic Bold, ';letter-spacing:1.32292px;fill:#1d2e6c;fill-opacity:1;stroke:none;stroke-width:4.99999"
         x="-2076.5471"
         y="1056.621"
         id="text81"><tspan
           sodipodi:role="line"
           id="tspan81"
           style="font-style:normal;font-variant:normal;font-weight:normal;font-stretch:normal;font-size:8.46667px;font-family:Oswald;-inkscape-font-specification:Oswald;fill:#1d2e6c;fill-opacity:1;stroke:none;stroke-width:5"
           x="-2076.5471"
           y="1056.621">England</tspan></text><g
         id="g14"
         transform="matrix(0.27280537,0,0,0.27280537,-2231.1797,789.26535)"><path
           id="path8"
           style="fill:#800000;fill-opacity:1;stroke-width:5.77762"
           d="m 549.08896,888.75764 a 18.328001,18.328001 0 0 0 -18.32808,18.32808 18.328001,18.328001 0 0 0 4.6545,12.18013 l 13.66738,29.21217 a 12.919738,12.42976 0 0 0 -12.91342,12.42922 12.919738,12.42976 0 0 0 12.91962,12.42973 12.919738,12.42976 0 0 0 12.91963,-12.42973 12.919738,12.42976 0 0 0 -12.91342,-12.42973 l 13.66738,-29.21166 a 18.328001,18.328001 0 0 0 4.6545,-12.18013 18.328001,18.328001 0 0 0 -18.32809,-18.32808 z" /><path
           id="path14"
           style="fill:#ffffff;stroke-width:7.3505"
           d="m 549.08896,949.59969 a 11.09288,11.09288 0 0 0 -11.09286,11.09287 11.09288,11.09288 0 0 0 11.09286,11.09286 11.09288,11.09288 0 0 0 11.09287,-11.09286 11.09288,11.09288 0 0 0 -11.09287,-11.09287 z m 0,1.60817 a 9.485158,9.485158 0 0 1 9.48521,9.4847 9.485158,9.485158 0 0 1 -9.48521,9.48521 9.485158,9.485158 0 0 1 -9.48521,-9.48521 9.485158,9.485158 0 0 1 9.48521,-9.4847 z" /></g><text
         xml:space="preserve"
         style="font-style:normal;font-variant:normal;font-weight:normal;font-stretch:normal;font-size:8.46667px;line-height:0;font-family:'Copperplate Gothic Bold';-inkscape-font-specification:'Copperplate Gothic Bold, ';letter-spacing:1.32292px;fill:#1d2e6c;fill-opacity:1;stroke:none;stroke-width:4.99999"
         x="-2021.6572"
         y="1083.5336"
         id="text82"><tspan
           sodipodi:role="line"
           id="tspan82"
           style="font-style:normal;font-variant:normal;font-weight:normal;font-stretch:normal;font-size:8.46667px;font-family:Oswald;-inkscape-font-specification:Oswald;fill:#1d2e6c;fill-opacity:1;stroke:none;stroke-width:5"
           x="-2021.6572"
           y="1083.5336">Turkey</tspan></text><text
         xml:space="preserve"
         style="font-style:normal;font-variant:normal;font-weight:normal;font-stretch:normal;font-size:8.46667px;line-height:0;font-family:'Copperplate Gothic Bold';-inkscape-font-specification:'Copperplate Gothic Bold, ';letter-spacing:1.32292px;fill:#1d2e6c;fill-opacity:1;stroke:none;stroke-width:0.2;stroke-dasharray:none;stroke-opacity:1"
         x="-1801.6271"
         y="1121.7432"
         id="text83"><tspan
           sodipodi:role="line"
           id="tspan83"
           style="font-style:normal;font-variant:normal;font-weight:normal;font-stretch:normal;font-size:8.46667px;font-family:Oswald;-inkscape-font-specification:Oswald;fill:#1d2e6c;fill-opacity:1;stroke:none;stroke-width:0.2;stroke-dasharray:none;stroke-opacity:1"
           x="-1801.6271"
           y="1121.7432">China</tspan></text><text
         xml:space="preserve"
         style="font-style:normal;font-variant:normal;font-weight:normal;font-stretch:normal;font-size:8.46667px;line-height:0;font-family:'Copperplate Gothic Bold';-inkscape-font-specification:'Copperplate Gothic Bold, ';letter-spacing:1.32292px;fill:#1d2e6c;fill-opacity:1;stroke:none;stroke-width:0.2;stroke-dasharray:none;stroke-opacity:1"
         x="-1719.9254"
         y="1148.7312"
         id="text85"><tspan
           sodipodi:role="line"
           id="tspan85"
           style="font-style:normal;font-variant:normal;font-weight:normal;font-stretch:normal;font-size:8.46667px;font-family:Oswald;-inkscape-font-specification:Oswald;fill:#1d2e6c;fill-opacity:1;stroke:none;stroke-width:0.2;stroke-dasharray:none;stroke-opacity:1"
           x="-1719.9254"
           y="1148.7312">Taiwan</tspan></text><text
         xml:space="preserve"
         style="font-style:normal;font-variant:normal;font-weight:normal;font-stretch:normal;font-size:8.46667px;line-height:0;font-family:'Copperplate Gothic Bold';-inkscape-font-specification:'Copperplate Gothic Bold, ';letter-spacing:1.32292px;fill:#1d2e6c;fill-opacity:1;stroke:none;stroke-width:0.2;stroke-dasharray:none;stroke-opacity:1"
         x="-1763.3296"
         y="1112.5215"
         id="text86"><tspan
           sodipodi:role="line"
           id="tspan86"
           style="font-style:normal;font-variant:normal;font-weight:normal;font-stretch:normal;font-size:8.46667px;font-family:Oswald;-inkscape-font-specification:Oswald;fill:#1d2e6c;fill-opacity:1;stroke:none;stroke-width:0.2;stroke-dasharray:none;stroke-opacity:1"
           x="-1763.3296"
           y="1112.5215">South Korea</tspan></text><text
         xml:space="preserve"
         style="font-style:normal;font-variant:normal;font-weight:normal;font-stretch:normal;font-size:8.46667px;line-height:0;font-family:'Copperplate Gothic Bold';-inkscape-font-specification:'Copperplate Gothic Bold, ';letter-spacing:1.32292px;fill:#1d2e6c;fill-opacity:1;stroke:none;stroke-width:4.99999"
         x="-1680.9691"
         y="1127.5308"
         id="text87"><tspan
           sodipodi:role="line"
           id="tspan87"
           style="font-style:normal;font-variant:normal;font-weight:normal;font-stretch:normal;font-size:8.46667px;font-family:Oswald;-inkscape-font-specification:Oswald;fill:#1d2e6c;fill-opacity:1;stroke:none;stroke-width:5"
           x="-1680.9691"
           y="1127.5308">Japan</tspan></text><text
         xml:space="preserve"
         style="font-style:normal;font-variant:normal;font-weight:normal;font-stretch:normal;font-size:8.46667px;line-height:0;font-family:'Copperplate Gothic Bold';-inkscape-font-specification:'Copperplate Gothic Bold, ';letter-spacing:1.32292px;fill:#1d2e6c;fill-opacity:1;stroke:none;stroke-width:4.99999"
         x="-2078.2161"
         y="1065.4841"
         id="text93"><tspan
           sodipodi:role="line"
           id="tspan93"
           style="font-style:normal;font-variant:normal;font-weight:normal;font-stretch:normal;font-size:8.46667px;font-family:Oswald;-inkscape-font-specification:Oswald;fill:#1d2e6c;fill-opacity:1;stroke:none;stroke-width:5"
           x="-2078.2161"
           y="1065.4841">(Europe)</tspan></text><rect
         style="fill:#f2f2f2;fill-opacity:1;stroke-width:4.99999"
         id="rect2"
         width="28.126524"
         height="31.251694"
         x="-2478.0295"
         y="1385.8518" /><rect
         style="fill:#f2f2f2;fill-opacity:1;stroke-width:11.8971"
         id="rect4"
         width="159.24301"
         height="31.251694"
         x="-1677.1375"
         y="1385.8518" /></g></g></svg>
